<?xml version="1.0"?>
<!-- Generated by SVGo and Plotinum VG -->
<svg width="489.6pt" height="288pt" viewBox="0 0 489.6 288"
	xmlns="http://www.w3.org/2000/svg"
	xmlns:xlink="http://www.w3.org/1999/xlink">
<g transform="scale(1, -1) translate(0, -288)">
<path d="M0,0L489.6,0L489.6,288L0,288Z" style="fill:#FCFCFA" />
<text x="136.31" y="-275.48" transform="scale(1, -1)"
	style="font-family:Liberation Serif;font-variant:normal;font-weight:normal;font-style:normal;font-size:16px;fill:#1F2937">Mixed Create + Paginated Listing</text>
<text x="268.53" y="-3.9023" transform="scale(1, -1)"
	style="font-family:Liberation Serif;font-variant:normal;font-weight:normal;font-style:normal;font-size:12px;fill:#1F2937">Workload</text>
<text x="244.84" y="-16.541" transform="scale(1, -1)"
	style="font-family:Liberation Serif;font-variant:normal;font-weight:normal;font-style:normal;font-size:10px;fill:#1F2937">mixed-create-paginated</text>
<g transform="rotate(90)">
<text x="117.8" y="9.3867" transform="scale(1, -1)"
	style="font-family:Liberation Serif;font-variant:normal;font-weight:normal;font-style:normal;font-size:12px;fill:#1F2937">Latency (µs)</text>
</g>
<text x="30.885" y="-27.078" transform="scale(1, -1)"
	style="font-family:Liberation Serif;font-variant:normal;font-weight:normal;font-style:normal;font-size:10px;fill:#1F2937">0</text>
<text x="20.885" y="-130.48" transform="scale(1, -1)"
	style="font-family:Liberation Serif;font-variant:normal;font-weight:normal;font-style:normal;font-size:10px;fill:#1F2937">800</text>
<text x="15.885" y="-233.88" transform="scale(1, -1)"
	style="font-family:Liberation Serif;font-variant:normal;font-weight:normal;font-style:normal;font-size:10px;fill:#1F2937">1600</text>
<path d="M38.385,29.363L46.385,29.363" style="fill:none;stroke:#5B6775;stroke-width:0.5" />
<path d="M38.385,132.76L46.385,132.76" style="fill:none;stroke:#5B6775;stroke-width:0.5" />
<path d="M38.385,236.16L46.385,236.16" style="fill:none;stroke:#5B6775;stroke-width:0.5" />
<path d="M42.385,81.063L46.385,81.063" style="fill:none;stroke:#5B6775;stroke-width:0.5" />
<path d="M42.385,184.46L46.385,184.46" style="fill:none;stroke:#5B6775;stroke-width:0.5" />
<path d="M46.385,29.363L46.385,267.45" style="fill:none;stroke:#5B6775;stroke-width:0.8" />
<path d="M292.04,29.363L292.04,267.45" style="fill:none;stroke:#000000;stroke-opacity:0;stroke-width:0.25" />
<path d="M94.48,29.363L489.6,29.363" style="fill:none;stroke:#E3E7EC;stroke-width:0.7" />
<path d="M94.48,132.76L489.6,132.76" style="fill:none;stroke:#E3E7EC;stroke-width:0.7" />
<path d="M94.48,236.16L489.6,236.16" style="fill:none;stroke:#E3E7EC;stroke-width:0.7" />
<path d="M277.04,29.363L277.04,105.54L287.04,105.54L287.04,29.363Z" style="fill:#2563EB" />
<path d="M277.04,29.363L277.04,105.54L287.04,105.54L287.04,29.363L277.04,29.363" style="fill:none;stroke:#FFFFFF;stroke-width:0.4" />
<path d="M287.04,29.363L287.04,240.14L297.04,240.14L297.04,29.363Z" style="fill:#D97706" />
<path d="M287.04,29.363L287.04,240.14L297.04,240.14L297.04,29.363L287.04,29.363" style="fill:none;stroke:#FFFFFF;stroke-width:0.4" />
<path d="M297.04,29.363L297.04,267.45L307.04,267.45L307.04,29.363Z" style="fill:#059669" />
<path d="M297.04,29.363L297.04,267.45L307.04,267.45L307.04,29.363L297.04,29.363" style="fill:none;stroke:#FFFFFF;stroke-width:0.4" />
<path d="M468.6,256.26L468.6,265.18L488.6,265.18L488.6,256.26Z" style="fill:#2563EB" />
<path d="M468.6,256.26L468.6,265.18L488.6,265.18L488.6,256.26L468.6,256.26" style="fill:none;stroke:#FFFFFF;stroke-width:0.4" />
<text x="396.59" y="-258.54" transform="scale(1, -1)"
	style="font-family:Liberation Serif;font-variant:normal;font-weight:normal;font-style:normal;font-size:10.5px;fill:#1F2937">secondary-index</text>
<path d="M468.6,243.35L468.6,252.26L488.6,252.26L488.6,243.35Z" style="fill:#D97706" />
<path d="M468.6,243.35L468.6,252.26L488.6,252.26L488.6,243.35L468.6,243.35" style="fill:none;stroke:#FFFFFF;stroke-width:0.4" />
<text x="380.28" y="-245.63" transform="scale(1, -1)"
	style="font-family:Liberation Serif;font-variant:normal;font-weight:normal;font-style:normal;font-size:10.5px;fill:#1F2937">repairing-read-plane</text>
<path d="M468.6,230.44L468.6,239.35L488.6,239.35L488.6,230.44Z" style="fill:#059669" />
<path d="M468.6,230.44L468.6,239.35L488.6,239.35L488.6,230.44L468.6,230.44" style="fill:none;stroke:#FFFFFF;stroke-width:0.4" />
<text x="395.64" y="-232.72" transform="scale(1, -1)"
	style="font-family:Liberation Serif;font-variant:normal;font-weight:normal;font-style:normal;font-size:10.5px;fill:#1F2937">repair-then-strict</text>
</g>
</svg>
