<?xml version="1.0" encoding="UTF-8" standalone="no"?>
<!DOCTYPE svg PUBLIC "-//W3C//DTD SVG 1.1//EN"
 "http://www.w3.org/Graphics/SVG/1.1/DTD/svg11.dtd">
<!-- Generated by graphviz version 2.43.0 (0)
 -->
<!-- Title: benchmark.test Pages: 1 -->
<svg width="3325pt" height="2969pt"
 viewBox="0.00 0.00 1197.00 1069.00" xmlns="http://www.w3.org/2000/svg" xmlns:xlink="http://www.w3.org/1999/xlink">
<g id="graph0" class="graph" transform="scale(2.78 2.78) rotate(0) translate(4 1065)">
<title>benchmark.test</title>
<polygon fill="white" stroke="transparent" points="-4,4 -4,-1065 1193,-1065 1193,4 -4,4"/>
<g id="clust1" class="cluster">
<title>cluster_L</title>
<polygon fill="none" stroke="black" points="8,-884 8,-1053 610,-1053 610,-884 8,-884"/>
</g>
<!-- File: benchmark.test -->
<g id="node1" class="node">
<title>File: benchmark.test</title>
<g id="a_node1"><a xlink:title="benchmark.test">
<polygon fill="#f8f8f8" stroke="black" points="602.5,-1045 15.5,-1045 15.5,-892 602.5,-892 602.5,-1045"/>
<text text-anchor="start" x="23.5" y="-1028.2" font-family="Times,serif" font-size="16.00">File: benchmark.test</text>
<text text-anchor="start" x="23.5" y="-1010.2" font-family="Times,serif" font-size="16.00">Build ID: 75d7c928f24edb4b2f34fd24f601670b42c08798</text>
<text text-anchor="start" x="23.5" y="-992.2" font-family="Times,serif" font-size="16.00">Type: inuse_space</text>
<text text-anchor="start" x="23.5" y="-974.2" font-family="Times,serif" font-size="16.00">Time: 2025&#45;10&#45;16 01:14:25 AEDT</text>
<text text-anchor="start" x="23.5" y="-956.2" font-family="Times,serif" font-size="16.00">Showing nodes accounting for 134.01MB, 98.14% of 136.55MB total</text>
<text text-anchor="start" x="23.5" y="-938.2" font-family="Times,serif" font-size="16.00">Dropped 21 nodes (cum &lt;= 0.68MB)</text>
<text text-anchor="start" x="23.5" y="-901.2" font-family="Times,serif" font-size="16.00">See https://git.io/JfYMW for how to read the graph</text>
</a>
</g>
</g>
<!-- N1 -->
<g id="node1" class="node">
<title>N1</title>
<g id="a_node1"><a xlink:title="github.com/feichai0017/NoKV/utils.newArena (128MB)">
<polygon fill="#edd5d5" stroke="#b20300" points="782,-173 562,-173 562,-87 782,-87 782,-173"/>
<text text-anchor="middle" x="672" y="-149.8" font-family="Times,serif" font-size="24.00">utils</text>
<text text-anchor="middle" x="672" y="-123.8" font-family="Times,serif" font-size="24.00">newArena</text>
<text text-anchor="middle" x="672" y="-97.8" font-family="Times,serif" font-size="24.00">128MB (93.74%)</text>
</a>
</g>
</g>
<!-- NN1_0 -->
<g id="NN1_0" class="node">
<title>NN1_0</title>
<g id="a_NN1_0"><a xlink:title="128MB">
<polygon fill="#f8f8f8" stroke="black" points="699,-36 649,-36 645,-32 645,0 695,0 699,-4 699,-36"/>
<polyline fill="none" stroke="black" points="695,-32 645,-32 "/>
<polyline fill="none" stroke="black" points="695,-32 695,0 "/>
<polyline fill="none" stroke="black" points="695,-32 699,-36 "/>
<text text-anchor="middle" x="672" y="-16.1" font-family="Times,serif" font-size="8.00">128MB</text>
</a>
</g>
</g>
<!-- N1&#45;&gt;NN1_0 -->
<g id="edge1" class="edge">
<title>N1&#45;&gt;NN1_0</title>
<g id="a_edge1"><a xlink:title="128MB">
<path fill="none" stroke="black" d="M672,-86.79C672,-73.2 672,-58.5 672,-46.28"/>
<polygon fill="black" stroke="black" points="675.5,-46.27 672,-36.27 668.5,-46.27 675.5,-46.27"/>
</a>
</g>
<g id="a_edge1&#45;label"><a xlink:title="128MB">
<text text-anchor="middle" x="700.5" y="-57.8" font-family="Times,serif" font-size="14.00"> 128MB</text>
</a>
</g>
</g>
<!-- N2 -->
<g id="node2" class="node">
<title>N2</title>
<g id="a_node2"><a xlink:title="testing.(*B).run1.func1 (128MB)">
<polygon fill="#edd5d5" stroke="#b20300" points="723.5,-995 620.5,-995 620.5,-942 723.5,-942 723.5,-995"/>
<text text-anchor="middle" x="672" y="-984.6" font-family="Times,serif" font-size="8.00">testing</text>
<text text-anchor="middle" x="672" y="-975.6" font-family="Times,serif" font-size="8.00">(*B)</text>
<text text-anchor="middle" x="672" y="-966.6" font-family="Times,serif" font-size="8.00">run1</text>
<text text-anchor="middle" x="672" y="-957.6" font-family="Times,serif" font-size="8.00">func1</text>
<text text-anchor="middle" x="672" y="-948.6" font-family="Times,serif" font-size="8.00">0 of 128MB (93.74%)</text>
</a>
</g>
</g>
<!-- N27 -->
<g id="node27" class="node">
<title>N27</title>
<g id="a_node27"><a xlink:title="testing.(*B).runN (128.50MB)">
<polygon fill="#edd5d5" stroke="#b20300" points="730,-826 614,-826 614,-782 730,-782 730,-826"/>
<text text-anchor="middle" x="672" y="-815.6" font-family="Times,serif" font-size="8.00">testing</text>
<text text-anchor="middle" x="672" y="-806.6" font-family="Times,serif" font-size="8.00">(*B)</text>
<text text-anchor="middle" x="672" y="-797.6" font-family="Times,serif" font-size="8.00">runN</text>
<text text-anchor="middle" x="672" y="-788.6" font-family="Times,serif" font-size="8.00">0 of 128.50MB (94.11%)</text>
</a>
</g>
</g>
<!-- N2&#45;&gt;N27 -->
<g id="edge11" class="edge">
<title>N2&#45;&gt;N27</title>
<g id="a_edge11"><a xlink:title="testing.(*B).run1.func1 &#45;&gt; testing.(*B).runN (128MB)">
<path fill="none" stroke="#b20300" stroke-width="5" d="M672,-941.75C672,-913.25 672,-867.3 672,-836.63"/>
<polygon fill="#b20300" stroke="#b20300" stroke-width="5" points="676.38,-836.48 672,-826.48 667.63,-836.48 676.38,-836.48"/>
</a>
</g>
<g id="a_edge11&#45;label"><a xlink:title="testing.(*B).run1.func1 &#45;&gt; testing.(*B).runN (128MB)">
<text text-anchor="middle" x="700.5" y="-855.3" font-family="Times,serif" font-size="14.00"> 128MB</text>
</a>
</g>
</g>
<!-- N3 -->
<g id="node3" class="node">
<title>N3</title>
<g id="a_node3"><a xlink:title="runtime.allocm (5.51MB)">
<polygon fill="#edebe8" stroke="#b2a48e" points="969,-160 839,-160 839,-100 969,-100 969,-160"/>
<text text-anchor="middle" x="904" y="-146.4" font-family="Times,serif" font-size="12.00">runtime</text>
<text text-anchor="middle" x="904" y="-133.4" font-family="Times,serif" font-size="12.00">allocm</text>
<text text-anchor="middle" x="904" y="-120.4" font-family="Times,serif" font-size="12.00">5.01MB (3.67%)</text>
<text text-anchor="middle" x="904" y="-107.4" font-family="Times,serif" font-size="12.00">of 5.51MB (4.04%)</text>
</a>
</g>
</g>
<!-- NN3_0 -->
<g id="NN3_0" class="node">
<title>NN3_0</title>
<g id="a_NN3_0"><a xlink:title="5.01MB">
<polygon fill="#f8f8f8" stroke="black" points="931,-36 881,-36 877,-32 877,0 927,0 931,-4 931,-36"/>
<polyline fill="none" stroke="black" points="927,-32 877,-32 "/>
<polyline fill="none" stroke="black" points="927,-32 927,0 "/>
<polyline fill="none" stroke="black" points="927,-32 931,-36 "/>
<text text-anchor="middle" x="904" y="-16.1" font-family="Times,serif" font-size="8.00">2kB</text>
</a>
</g>
</g>
<!-- N3&#45;&gt;NN3_0 -->
<g id="edge2" class="edge">
<title>N3&#45;&gt;NN3_0</title>
<g id="a_edge2"><a xlink:title="5.01MB">
<path fill="none" stroke="black" d="M904,-99.81C904,-83.37 904,-62.94 904,-46.74"/>
<polygon fill="black" stroke="black" points="907.5,-46.3 904,-36.3 900.5,-46.3 907.5,-46.3"/>
</a>
</g>
<g id="a_edge2&#45;label"><a xlink:title="5.01MB">
<text text-anchor="middle" x="934.5" y="-57.8" font-family="Times,serif" font-size="14.00"> 5.01MB</text>
</a>
</g>
</g>
<!-- N4 -->
<g id="node4" class="node">
<title>N4</title>
<g id="a_node4"><a xlink:title="runtime.mcall (4.51MB)">
<polygon fill="#edebe9" stroke="#b2a795" points="954,-822 854,-822 854,-786 954,-786 954,-822"/>
<text text-anchor="middle" x="904" y="-811.1" font-family="Times,serif" font-size="8.00">runtime</text>
<text text-anchor="middle" x="904" y="-802.1" font-family="Times,serif" font-size="8.00">mcall</text>
<text text-anchor="middle" x="904" y="-793.1" font-family="Times,serif" font-size="8.00">0 of 4.51MB (3.30%)</text>
</a>
</g>
</g>
<!-- N23 -->
<g id="node23" class="node">
<title>N23</title>
<g id="a_node23"><a xlink:title="runtime.park_m (4.51MB)">
<polygon fill="#edebe9" stroke="#b2a795" points="954,-731 854,-731 854,-695 954,-695 954,-731"/>
<text text-anchor="middle" x="904" y="-720.1" font-family="Times,serif" font-size="8.00">runtime</text>
<text text-anchor="middle" x="904" y="-711.1" font-family="Times,serif" font-size="8.00">park_m</text>
<text text-anchor="middle" x="904" y="-702.1" font-family="Times,serif" font-size="8.00">0 of 4.51MB (3.30%)</text>
</a>
</g>
</g>
<!-- N4&#45;&gt;N23 -->
<g id="edge17" class="edge">
<title>N4&#45;&gt;N23</title>
<g id="a_edge17"><a xlink:title="runtime.mcall &#45;&gt; runtime.park_m (4.51MB)">
<path fill="none" stroke="#b2a795" d="M904,-785.84C904,-773.28 904,-755.98 904,-741.5"/>
<polygon fill="#b2a795" stroke="#b2a795" points="907.5,-741.11 904,-731.11 900.5,-741.11 907.5,-741.11"/>
</a>
</g>
<g id="a_edge17&#45;label"><a xlink:title="runtime.mcall &#45;&gt; runtime.park_m (4.51MB)">
<text text-anchor="middle" x="934.5" y="-752.8" font-family="Times,serif" font-size="14.00"> 4.51MB</text>
</a>
</g>
</g>
<!-- N5 -->
<g id="node5" class="node">
<title>N5</title>
<g id="a_node5"><a xlink:title="runtime.schedule (5.51MB)">
<polygon fill="#edebe8" stroke="#b2a48e" points="954,-641.5 854,-641.5 854,-605.5 954,-605.5 954,-641.5"/>
<text text-anchor="middle" x="904" y="-630.6" font-family="Times,serif" font-size="8.00">runtime</text>
<text text-anchor="middle" x="904" y="-621.6" font-family="Times,serif" font-size="8.00">schedule</text>
<text text-anchor="middle" x="904" y="-612.6" font-family="Times,serif" font-size="8.00">0 of 5.51MB (4.04%)</text>
</a>
</g>
</g>
<!-- N24 -->
<g id="node24" class="node">
<title>N24</title>
<g id="a_node24"><a xlink:title="runtime.resetspinning (5.51MB)">
<polygon fill="#edebe8" stroke="#b2a48e" points="954,-552 854,-552 854,-516 954,-516 954,-552"/>
<text text-anchor="middle" x="904" y="-541.1" font-family="Times,serif" font-size="8.00">runtime</text>
<text text-anchor="middle" x="904" y="-532.1" font-family="Times,serif" font-size="8.00">resetspinning</text>
<text text-anchor="middle" x="904" y="-523.1" font-family="Times,serif" font-size="8.00">0 of 5.51MB (4.04%)</text>
</a>
</g>
</g>
<!-- N5&#45;&gt;N24 -->
<g id="edge14" class="edge">
<title>N5&#45;&gt;N24</title>
<g id="a_edge14"><a xlink:title="runtime.schedule &#45;&gt; runtime.resetspinning (5.51MB)">
<path fill="none" stroke="#b2a48e" d="M904,-605.21C904,-592.99 904,-576.35 904,-562.34"/>
<polygon fill="#b2a48e" stroke="#b2a48e" points="907.5,-562.25 904,-552.25 900.5,-562.25 907.5,-562.25"/>
</a>
</g>
<g id="a_edge14&#45;label"><a xlink:title="runtime.schedule &#45;&gt; runtime.resetspinning (5.51MB)">
<text text-anchor="middle" x="934.5" y="-573.8" font-family="Times,serif" font-size="14.00"> 5.51MB</text>
</a>
</g>
</g>
<!-- N6 -->
<g id="node6" class="node">
<title>N6</title>
<g id="a_node6"><a xlink:title="runtime.malg (1MB)">
<polygon fill="#edecec" stroke="#b2b1ab" points="1057,-644 975,-644 975,-603 1057,-603 1057,-644"/>
<text text-anchor="middle" x="1016" y="-632" font-family="Times,serif" font-size="10.00">runtime</text>
<text text-anchor="middle" x="1016" y="-621" font-family="Times,serif" font-size="10.00">malg</text>
<text text-anchor="middle" x="1016" y="-610" font-family="Times,serif" font-size="10.00">1MB (0.73%)</text>
</a>
</g>
</g>
<!-- NN6_0 -->
<g id="NN6_0" class="node">
<title>NN6_0</title>
<g id="a_NN6_0"><a xlink:title="1MB">
<polygon fill="#f8f8f8" stroke="black" points="1043,-552 993,-552 989,-548 989,-516 1039,-516 1043,-520 1043,-552"/>
<polyline fill="none" stroke="black" points="1039,-548 989,-548 "/>
<polyline fill="none" stroke="black" points="1039,-548 1039,-516 "/>
<polyline fill="none" stroke="black" points="1039,-548 1043,-552 "/>
<text text-anchor="middle" x="1016" y="-532.1" font-family="Times,serif" font-size="8.00">448B</text>
</a>
</g>
</g>
<!-- N6&#45;&gt;NN6_0 -->
<g id="edge3" class="edge">
<title>N6&#45;&gt;NN6_0</title>
<g id="a_edge3"><a xlink:title="1MB">
<path fill="none" stroke="black" d="M1016,-602.64C1016,-590.75 1016,-575.45 1016,-562.41"/>
<polygon fill="black" stroke="black" points="1019.5,-562.12 1016,-552.12 1012.5,-562.12 1019.5,-562.12"/>
</a>
</g>
<g id="a_edge3&#45;label"><a xlink:title="1MB">
<text text-anchor="middle" x="1035.5" y="-573.8" font-family="Times,serif" font-size="14.00"> 1MB</text>
</a>
</g>
</g>
<!-- N7 -->
<g id="node7" class="node">
<title>N7</title>
<g id="a_node7"><a xlink:title="runtime.doInit1 (1.03MB)">
<polygon fill="#edecec" stroke="#b2b0ab" points="1178,-731 1078,-731 1078,-695 1178,-695 1178,-731"/>
<text text-anchor="middle" x="1128" y="-720.1" font-family="Times,serif" font-size="8.00">runtime</text>
<text text-anchor="middle" x="1128" y="-711.1" font-family="Times,serif" font-size="8.00">doInit1</text>
<text text-anchor="middle" x="1128" y="-702.1" font-family="Times,serif" font-size="8.00">0 of 1.03MB (0.76%)</text>
</a>
</g>
</g>
<!-- N8 -->
<g id="node8" class="node">
<title>N8</title>
<g id="a_node8"><a xlink:title="runtime.main (1.03MB)">
<polygon fill="#edecec" stroke="#b2b0ab" points="1178,-986.5 1078,-986.5 1078,-950.5 1178,-950.5 1178,-986.5"/>
<text text-anchor="middle" x="1128" y="-975.6" font-family="Times,serif" font-size="8.00">runtime</text>
<text text-anchor="middle" x="1128" y="-966.6" font-family="Times,serif" font-size="8.00">main</text>
<text text-anchor="middle" x="1128" y="-957.6" font-family="Times,serif" font-size="8.00">0 of 1.03MB (0.76%)</text>
</a>
</g>
</g>
<!-- N17 -->
<g id="node17" class="node">
<title>N17</title>
<g id="a_node17"><a xlink:title="runtime.doInit (1.03MB)">
<polygon fill="#edecec" stroke="#b2b0ab" points="1178,-822 1078,-822 1078,-786 1178,-786 1178,-822"/>
<text text-anchor="middle" x="1128" y="-811.1" font-family="Times,serif" font-size="8.00">runtime</text>
<text text-anchor="middle" x="1128" y="-802.1" font-family="Times,serif" font-size="8.00">doInit</text>
<text text-anchor="middle" x="1128" y="-793.1" font-family="Times,serif" font-size="8.00">0 of 1.03MB (0.76%)</text>
</a>
</g>
</g>
<!-- N8&#45;&gt;N17 -->
<g id="edge20" class="edge">
<title>N8&#45;&gt;N17</title>
<g id="a_edge20"><a xlink:title="runtime.main &#45;&gt; runtime.doInit (1.03MB)">
<path fill="none" stroke="#b2b0ab" d="M1128,-950.42C1128,-922.33 1128,-866.15 1128,-832.44"/>
<polygon fill="#b2b0ab" stroke="#b2b0ab" points="1131.5,-832.34 1128,-822.34 1124.5,-832.34 1131.5,-832.34"/>
</a>
</g>
<g id="a_edge20&#45;label"><a xlink:title="runtime.main &#45;&gt; runtime.doInit (1.03MB)">
<text text-anchor="middle" x="1158.5" y="-862.8" font-family="Times,serif" font-size="14.00"> 1.03MB</text>
<text text-anchor="middle" x="1158.5" y="-847.8" font-family="Times,serif" font-size="14.00"> (inline)</text>
</a>
</g>
</g>
<!-- N9 -->
<g id="node9" class="node">
<title>N9</title>
<g id="a_node9"><a xlink:title="runtime.mstart (1MB)">
<polygon fill="#edecec" stroke="#b2b1ab" points="835.5,-986.5 748.5,-986.5 748.5,-950.5 835.5,-950.5 835.5,-986.5"/>
<text text-anchor="middle" x="792" y="-975.6" font-family="Times,serif" font-size="8.00">runtime</text>
<text text-anchor="middle" x="792" y="-966.6" font-family="Times,serif" font-size="8.00">mstart</text>
<text text-anchor="middle" x="792" y="-957.6" font-family="Times,serif" font-size="8.00">0 of 1MB (0.73%)</text>
</a>
</g>
</g>
<!-- N18 -->
<g id="node18" class="node">
<title>N18</title>
<g id="a_node18"><a xlink:title="runtime.mstart0 (1MB)">
<polygon fill="#edecec" stroke="#b2b1ab" points="835.5,-822 748.5,-822 748.5,-786 835.5,-786 835.5,-822"/>
<text text-anchor="middle" x="792" y="-811.1" font-family="Times,serif" font-size="8.00">runtime</text>
<text text-anchor="middle" x="792" y="-802.1" font-family="Times,serif" font-size="8.00">mstart0</text>
<text text-anchor="middle" x="792" y="-793.1" font-family="Times,serif" font-size="8.00">0 of 1MB (0.73%)</text>
</a>
</g>
</g>
<!-- N9&#45;&gt;N18 -->
<g id="edge21" class="edge">
<title>N9&#45;&gt;N18</title>
<g id="a_edge21"><a xlink:title="runtime.mstart &#45;&gt; runtime.mstart0 (1MB)">
<path fill="none" stroke="#b2b1ab" d="M792,-950.42C792,-922.33 792,-866.15 792,-832.44"/>
<polygon fill="#b2b1ab" stroke="#b2b1ab" points="795.5,-832.34 792,-822.34 788.5,-832.34 795.5,-832.34"/>
</a>
</g>
<g id="a_edge21&#45;label"><a xlink:title="runtime.mstart &#45;&gt; runtime.mstart0 (1MB)">
<text text-anchor="middle" x="811.5" y="-855.3" font-family="Times,serif" font-size="14.00"> 1MB</text>
</a>
</g>
</g>
<!-- N10 -->
<g id="node10" class="node">
<title>N10</title>
<g id="a_node10"><a xlink:title="runtime.systemstack (1MB)">
<polygon fill="#edecec" stroke="#b2b1ab" points="1059.5,-986.5 972.5,-986.5 972.5,-950.5 1059.5,-950.5 1059.5,-986.5"/>
<text text-anchor="middle" x="1016" y="-975.6" font-family="Times,serif" font-size="8.00">runtime</text>
<text text-anchor="middle" x="1016" y="-966.6" font-family="Times,serif" font-size="8.00">systemstack</text>
<text text-anchor="middle" x="1016" y="-957.6" font-family="Times,serif" font-size="8.00">0 of 1MB (0.73%)</text>
</a>
</g>
</g>
<!-- N21 -->
<g id="node21" class="node">
<title>N21</title>
<g id="a_node21"><a xlink:title="runtime.newproc.func1 (1MB)">
<polygon fill="#edecec" stroke="#b2b1ab" points="1059.5,-826 972.5,-826 972.5,-782 1059.5,-782 1059.5,-826"/>
<text text-anchor="middle" x="1016" y="-815.6" font-family="Times,serif" font-size="8.00">runtime</text>
<text text-anchor="middle" x="1016" y="-806.6" font-family="Times,serif" font-size="8.00">newproc</text>
<text text-anchor="middle" x="1016" y="-797.6" font-family="Times,serif" font-size="8.00">func1</text>
<text text-anchor="middle" x="1016" y="-788.6" font-family="Times,serif" font-size="8.00">0 of 1MB (0.73%)</text>
</a>
</g>
</g>
<!-- N10&#45;&gt;N21 -->
<g id="edge26" class="edge">
<title>N10&#45;&gt;N21</title>
<g id="a_edge26"><a xlink:title="runtime.systemstack &#45;&gt; runtime.newproc.func1 (1MB)">
<path fill="none" stroke="#b2b1ab" d="M1016,-950.42C1016,-923.43 1016,-870.52 1016,-836.51"/>
<polygon fill="#b2b1ab" stroke="#b2b1ab" points="1019.5,-836.19 1016,-826.19 1012.5,-836.19 1019.5,-836.19"/>
</a>
</g>
<g id="a_edge26&#45;label"><a xlink:title="runtime.systemstack &#45;&gt; runtime.newproc.func1 (1MB)">
<text text-anchor="middle" x="1035.5" y="-855.3" font-family="Times,serif" font-size="14.00"> 1MB</text>
</a>
</g>
</g>
<!-- N11 -->
<g id="node11" class="node">
<title>N11</title>
<g id="a_node11"><a xlink:title="github.com/feichai0017/NoKV.Open (128.50MB)">
<polygon fill="#edd5d5" stroke="#b20300" points="730,-641.5 614,-641.5 614,-605.5 730,-605.5 730,-641.5"/>
<text text-anchor="middle" x="672" y="-630.6" font-family="Times,serif" font-size="8.00">NoKV</text>
<text text-anchor="middle" x="672" y="-621.6" font-family="Times,serif" font-size="8.00">Open</text>
<text text-anchor="middle" x="672" y="-612.6" font-family="Times,serif" font-size="8.00">0 of 128.50MB (94.11%)</text>
</a>
</g>
</g>
<!-- N15 -->
<g id="node15" class="node">
<title>N15</title>
<g id="a_node15"><a xlink:title="github.com/feichai0017/NoKV/lsm.NewLSM (128MB)">
<polygon fill="#edd5d5" stroke="#b20300" points="723.5,-552 620.5,-552 620.5,-516 723.5,-516 723.5,-552"/>
<text text-anchor="middle" x="672" y="-541.1" font-family="Times,serif" font-size="8.00">lsm</text>
<text text-anchor="middle" x="672" y="-532.1" font-family="Times,serif" font-size="8.00">NewLSM</text>
<text text-anchor="middle" x="672" y="-523.1" font-family="Times,serif" font-size="8.00">0 of 128MB (93.74%)</text>
</a>
</g>
</g>
<!-- N11&#45;&gt;N15 -->
<g id="edge6" class="edge">
<title>N11&#45;&gt;N15</title>
<g id="a_edge6"><a xlink:title="github.com/feichai0017/NoKV.Open &#45;&gt; github.com/feichai0017/NoKV/lsm.NewLSM (128MB)">
<path fill="none" stroke="#b20300" stroke-width="5" d="M672,-605.21C672,-592.99 672,-576.35 672,-562.34"/>
<polygon fill="#b20300" stroke="#b20300" stroke-width="5" points="676.38,-562.25 672,-552.25 667.63,-562.25 676.38,-562.25"/>
</a>
</g>
<g id="a_edge6&#45;label"><a xlink:title="github.com/feichai0017/NoKV.Open &#45;&gt; github.com/feichai0017/NoKV/lsm.NewLSM (128MB)">
<text text-anchor="middle" x="700.5" y="-573.8" font-family="Times,serif" font-size="14.00"> 128MB</text>
</a>
</g>
</g>
<!-- N12 -->
<g id="node12" class="node">
<title>N12</title>
<g id="a_node12"><a xlink:title="github.com/feichai0017/NoKV/benchmark.BenchmarkNoKVWrite (128.50MB)">
<polygon fill="#edd5d5" stroke="#b20300" points="730,-731 614,-731 614,-695 730,-695 730,-731"/>
<text text-anchor="middle" x="672" y="-720.1" font-family="Times,serif" font-size="8.00">benchmark</text>
<text text-anchor="middle" x="672" y="-711.1" font-family="Times,serif" font-size="8.00">BenchmarkNoKVWrite</text>
<text text-anchor="middle" x="672" y="-702.1" font-family="Times,serif" font-size="8.00">0 of 128.50MB (94.11%)</text>
</a>
</g>
</g>
<!-- N12&#45;&gt;N11 -->
<g id="edge4" class="edge">
<title>N12&#45;&gt;N11</title>
<g id="a_edge4"><a xlink:title="github.com/feichai0017/NoKV/benchmark.BenchmarkNoKVWrite &#45;&gt; github.com/feichai0017/NoKV.Open (128.50MB)">
<path fill="none" stroke="#b20300" stroke-width="5" d="M672,-694.71C672,-682.49 672,-665.85 672,-651.84"/>
<polygon fill="#b20300" stroke="#b20300" stroke-width="5" points="676.38,-651.75 672,-641.75 667.63,-651.75 676.38,-651.75"/>
</a>
</g>
<g id="a_edge4&#45;label"><a xlink:title="github.com/feichai0017/NoKV/benchmark.BenchmarkNoKVWrite &#45;&gt; github.com/feichai0017/NoKV.Open (128.50MB)">
<text text-anchor="middle" x="711.5" y="-665.8" font-family="Times,serif" font-size="14.00"> 128.50MB</text>
</a>
</g>
</g>
<!-- N13 -->
<g id="node13" class="node">
<title>N13</title>
<g id="a_node13"><a xlink:title="github.com/feichai0017/NoKV/lsm.(*LSM).openMemTable (128MB)">
<polygon fill="#edd5d5" stroke="#b20300" points="723.5,-370 620.5,-370 620.5,-326 723.5,-326 723.5,-370"/>
<text text-anchor="middle" x="672" y="-359.6" font-family="Times,serif" font-size="8.00">lsm</text>
<text text-anchor="middle" x="672" y="-350.6" font-family="Times,serif" font-size="8.00">(*LSM)</text>
<text text-anchor="middle" x="672" y="-341.6" font-family="Times,serif" font-size="8.00">openMemTable</text>
<text text-anchor="middle" x="672" y="-332.6" font-family="Times,serif" font-size="8.00">0 of 128MB (93.74%)</text>
</a>
</g>
</g>
<!-- N16 -->
<g id="node16" class="node">
<title>N16</title>
<g id="a_node16"><a xlink:title="github.com/feichai0017/NoKV/utils.NewSkiplist (128MB)">
<polygon fill="#edd5d5" stroke="#b20300" points="723.5,-275 620.5,-275 620.5,-239 723.5,-239 723.5,-275"/>
<text text-anchor="middle" x="672" y="-264.1" font-family="Times,serif" font-size="8.00">utils</text>
<text text-anchor="middle" x="672" y="-255.1" font-family="Times,serif" font-size="8.00">NewSkiplist</text>
<text text-anchor="middle" x="672" y="-246.1" font-family="Times,serif" font-size="8.00">0 of 128MB (93.74%)</text>
</a>
</g>
</g>
<!-- N13&#45;&gt;N16 -->
<g id="edge7" class="edge">
<title>N13&#45;&gt;N16</title>
<g id="a_edge7"><a xlink:title="github.com/feichai0017/NoKV/lsm.(*LSM).openMemTable &#45;&gt; github.com/feichai0017/NoKV/utils.NewSkiplist (128MB)">
<path fill="none" stroke="#b20300" stroke-width="5" d="M672,-325.91C672,-313.78 672,-298.41 672,-285.36"/>
<polygon fill="#b20300" stroke="#b20300" stroke-width="5" points="676.38,-285.07 672,-275.07 667.63,-285.07 676.38,-285.07"/>
</a>
</g>
<g id="a_edge7&#45;label"><a xlink:title="github.com/feichai0017/NoKV/lsm.(*LSM).openMemTable &#45;&gt; github.com/feichai0017/NoKV/utils.NewSkiplist (128MB)">
<text text-anchor="middle" x="700.5" y="-296.8" font-family="Times,serif" font-size="14.00"> 128MB</text>
</a>
</g>
</g>
<!-- N14 -->
<g id="node14" class="node">
<title>N14</title>
<g id="a_node14"><a xlink:title="github.com/feichai0017/NoKV/lsm.(*LSM).recovery (128MB)">
<polygon fill="#edd5d5" stroke="#b20300" points="723.5,-465 620.5,-465 620.5,-421 723.5,-421 723.5,-465"/>
<text text-anchor="middle" x="672" y="-454.6" font-family="Times,serif" font-size="8.00">lsm</text>
<text text-anchor="middle" x="672" y="-445.6" font-family="Times,serif" font-size="8.00">(*LSM)</text>
<text text-anchor="middle" x="672" y="-436.6" font-family="Times,serif" font-size="8.00">recovery</text>
<text text-anchor="middle" x="672" y="-427.6" font-family="Times,serif" font-size="8.00">0 of 128MB (93.74%)</text>
</a>
</g>
</g>
<!-- N14&#45;&gt;N13 -->
<g id="edge8" class="edge">
<title>N14&#45;&gt;N13</title>
<g id="a_edge8"><a xlink:title="github.com/feichai0017/NoKV/lsm.(*LSM).recovery &#45;&gt; github.com/feichai0017/NoKV/lsm.(*LSM).openMemTable (128MB)">
<path fill="none" stroke="#b20300" stroke-width="5" d="M672,-420.9C672,-408.89 672,-393.62 672,-380.24"/>
<polygon fill="#b20300" stroke="#b20300" stroke-width="5" points="676.38,-380.02 672,-370.02 667.63,-380.02 676.38,-380.02"/>
</a>
</g>
<g id="a_edge8&#45;label"><a xlink:title="github.com/feichai0017/NoKV/lsm.(*LSM).recovery &#45;&gt; github.com/feichai0017/NoKV/lsm.(*LSM).openMemTable (128MB)">
<text text-anchor="middle" x="700.5" y="-391.8" font-family="Times,serif" font-size="14.00"> 128MB</text>
</a>
</g>
</g>
<!-- N15&#45;&gt;N14 -->
<g id="edge9" class="edge">
<title>N15&#45;&gt;N14</title>
<g id="a_edge9"><a xlink:title="github.com/feichai0017/NoKV/lsm.NewLSM &#45;&gt; github.com/feichai0017/NoKV/lsm.(*LSM).recovery (128MB)">
<path fill="none" stroke="#b20300" stroke-width="5" d="M672,-515.84C672,-504.44 672,-489.13 672,-475.58"/>
<polygon fill="#b20300" stroke="#b20300" stroke-width="5" points="676.38,-475.19 672,-465.19 667.63,-475.19 676.38,-475.19"/>
</a>
</g>
<g id="a_edge9&#45;label"><a xlink:title="github.com/feichai0017/NoKV/lsm.NewLSM &#45;&gt; github.com/feichai0017/NoKV/lsm.(*LSM).recovery (128MB)">
<text text-anchor="middle" x="700.5" y="-486.8" font-family="Times,serif" font-size="14.00"> 128MB</text>
</a>
</g>
</g>
<!-- N16&#45;&gt;N1 -->
<g id="edge10" class="edge">
<title>N16&#45;&gt;N1</title>
<g id="a_edge10"><a xlink:title="github.com/feichai0017/NoKV/utils.NewSkiplist &#45;&gt; github.com/feichai0017/NoKV/utils.newArena (128MB)">
<path fill="none" stroke="#b20300" stroke-width="5" d="M672,-238.88C672,-224.53 672,-203.26 672,-183.39"/>
<polygon fill="#b20300" stroke="#b20300" stroke-width="5" points="676.38,-183.17 672,-173.17 667.63,-183.17 676.38,-183.17"/>
</a>
</g>
<g id="a_edge10&#45;label"><a xlink:title="github.com/feichai0017/NoKV/utils.NewSkiplist &#45;&gt; github.com/feichai0017/NoKV/utils.newArena (128MB)">
<text text-anchor="middle" x="700.5" y="-209.8" font-family="Times,serif" font-size="14.00"> 128MB</text>
<text text-anchor="middle" x="700.5" y="-194.8" font-family="Times,serif" font-size="14.00"> (inline)</text>
</a>
</g>
</g>
<!-- N17&#45;&gt;N7 -->
<g id="edge19" class="edge">
<title>N17&#45;&gt;N7</title>
<g id="a_edge19"><a xlink:title="runtime.doInit &#45;&gt; runtime.doInit1 (1.03MB)">
<path fill="none" stroke="#b2b0ab" d="M1128,-785.84C1128,-773.28 1128,-755.98 1128,-741.5"/>
<polygon fill="#b2b0ab" stroke="#b2b0ab" points="1131.5,-741.11 1128,-731.11 1124.5,-741.11 1131.5,-741.11"/>
</a>
</g>
<g id="a_edge19&#45;label"><a xlink:title="runtime.doInit &#45;&gt; runtime.doInit1 (1.03MB)">
<text text-anchor="middle" x="1158.5" y="-752.8" font-family="Times,serif" font-size="14.00"> 1.03MB</text>
</a>
</g>
</g>
<!-- N19 -->
<g id="node19" class="node">
<title>N19</title>
<g id="a_node19"><a xlink:title="runtime.mstart1 (1MB)">
<polygon fill="#edecec" stroke="#b2b1ab" points="835.5,-731 748.5,-731 748.5,-695 835.5,-695 835.5,-731"/>
<text text-anchor="middle" x="792" y="-720.1" font-family="Times,serif" font-size="8.00">runtime</text>
<text text-anchor="middle" x="792" y="-711.1" font-family="Times,serif" font-size="8.00">mstart1</text>
<text text-anchor="middle" x="792" y="-702.1" font-family="Times,serif" font-size="8.00">0 of 1MB (0.73%)</text>
</a>
</g>
</g>
<!-- N18&#45;&gt;N19 -->
<g id="edge22" class="edge">
<title>N18&#45;&gt;N19</title>
<g id="a_edge22"><a xlink:title="runtime.mstart0 &#45;&gt; runtime.mstart1 (1MB)">
<path fill="none" stroke="#b2b1ab" d="M792,-785.84C792,-773.28 792,-755.98 792,-741.5"/>
<polygon fill="#b2b1ab" stroke="#b2b1ab" points="795.5,-741.11 792,-731.11 788.5,-741.11 795.5,-741.11"/>
</a>
</g>
<g id="a_edge22&#45;label"><a xlink:title="runtime.mstart0 &#45;&gt; runtime.mstart1 (1MB)">
<text text-anchor="middle" x="811.5" y="-752.8" font-family="Times,serif" font-size="14.00"> 1MB</text>
</a>
</g>
</g>
<!-- N19&#45;&gt;N5 -->
<g id="edge23" class="edge">
<title>N19&#45;&gt;N5</title>
<g id="a_edge23"><a xlink:title="runtime.mstart1 &#45;&gt; runtime.schedule (1MB)">
<path fill="none" stroke="#b2b1ab" d="M813.86,-694.92C831.05,-681.49 855.18,-662.64 874.15,-647.82"/>
<polygon fill="#b2b1ab" stroke="#b2b1ab" points="876.47,-650.45 882.19,-641.54 872.16,-644.93 876.47,-650.45"/>
</a>
</g>
<g id="a_edge23&#45;label"><a xlink:title="runtime.mstart1 &#45;&gt; runtime.schedule (1MB)">
<text text-anchor="middle" x="874.5" y="-665.8" font-family="Times,serif" font-size="14.00"> 1MB</text>
</a>
</g>
</g>
<!-- N20 -->
<g id="node20" class="node">
<title>N20</title>
<g id="a_node20"><a xlink:title="runtime.newm (5.51MB)">
<polygon fill="#edebe8" stroke="#b2a48e" points="954,-275 854,-275 854,-239 954,-239 954,-275"/>
<text text-anchor="middle" x="904" y="-264.1" font-family="Times,serif" font-size="8.00">runtime</text>
<text text-anchor="middle" x="904" y="-255.1" font-family="Times,serif" font-size="8.00">newm</text>
<text text-anchor="middle" x="904" y="-246.1" font-family="Times,serif" font-size="8.00">0 of 5.51MB (4.04%)</text>
</a>
</g>
</g>
<!-- N20&#45;&gt;N3 -->
<g id="edge12" class="edge">
<title>N20&#45;&gt;N3</title>
<g id="a_edge12"><a xlink:title="runtime.newm &#45;&gt; runtime.allocm (5.51MB)">
<path fill="none" stroke="#b2a48e" d="M904,-238.88C904,-221.37 904,-193.55 904,-170.54"/>
<polygon fill="#b2a48e" stroke="#b2a48e" points="907.5,-170.37 904,-160.37 900.5,-170.37 907.5,-170.37"/>
</a>
</g>
<g id="a_edge12&#45;label"><a xlink:title="runtime.newm &#45;&gt; runtime.allocm (5.51MB)">
<text text-anchor="middle" x="934.5" y="-202.3" font-family="Times,serif" font-size="14.00"> 5.51MB</text>
</a>
</g>
</g>
<!-- N22 -->
<g id="node22" class="node">
<title>N22</title>
<g id="a_node22"><a xlink:title="runtime.newproc1 (1MB)">
<polygon fill="#edecec" stroke="#b2b1ab" points="1059.5,-731 972.5,-731 972.5,-695 1059.5,-695 1059.5,-731"/>
<text text-anchor="middle" x="1016" y="-720.1" font-family="Times,serif" font-size="8.00">runtime</text>
<text text-anchor="middle" x="1016" y="-711.1" font-family="Times,serif" font-size="8.00">newproc1</text>
<text text-anchor="middle" x="1016" y="-702.1" font-family="Times,serif" font-size="8.00">0 of 1MB (0.73%)</text>
</a>
</g>
</g>
<!-- N21&#45;&gt;N22 -->
<g id="edge24" class="edge">
<title>N21&#45;&gt;N22</title>
<g id="a_edge24"><a xlink:title="runtime.newproc.func1 &#45;&gt; runtime.newproc1 (1MB)">
<path fill="none" stroke="#b2b1ab" d="M1016,-781.91C1016,-769.78 1016,-754.41 1016,-741.36"/>
<polygon fill="#b2b1ab" stroke="#b2b1ab" points="1019.5,-741.07 1016,-731.07 1012.5,-741.07 1019.5,-741.07"/>
</a>
</g>
<g id="a_edge24&#45;label"><a xlink:title="runtime.newproc.func1 &#45;&gt; runtime.newproc1 (1MB)">
<text text-anchor="middle" x="1035.5" y="-752.8" font-family="Times,serif" font-size="14.00"> 1MB</text>
</a>
</g>
</g>
<!-- N22&#45;&gt;N6 -->
<g id="edge25" class="edge">
<title>N22&#45;&gt;N6</title>
<g id="a_edge25"><a xlink:title="runtime.newproc1 &#45;&gt; runtime.malg (1MB)">
<path fill="none" stroke="#b2b1ab" d="M1016,-694.71C1016,-683.24 1016,-667.87 1016,-654.44"/>
<polygon fill="#b2b1ab" stroke="#b2b1ab" points="1019.5,-654.19 1016,-644.19 1012.5,-654.19 1019.5,-654.19"/>
</a>
</g>
<g id="a_edge25&#45;label"><a xlink:title="runtime.newproc1 &#45;&gt; runtime.malg (1MB)">
<text text-anchor="middle" x="1035.5" y="-665.8" font-family="Times,serif" font-size="14.00"> 1MB</text>
</a>
</g>
</g>
<!-- N23&#45;&gt;N5 -->
<g id="edge18" class="edge">
<title>N23&#45;&gt;N5</title>
<g id="a_edge18"><a xlink:title="runtime.park_m &#45;&gt; runtime.schedule (4.51MB)">
<path fill="none" stroke="#b2a795" d="M904,-694.71C904,-682.49 904,-665.85 904,-651.84"/>
<polygon fill="#b2a795" stroke="#b2a795" points="907.5,-651.75 904,-641.75 900.5,-651.75 907.5,-651.75"/>
</a>
</g>
<g id="a_edge18&#45;label"><a xlink:title="runtime.park_m &#45;&gt; runtime.schedule (4.51MB)">
<text text-anchor="middle" x="934.5" y="-665.8" font-family="Times,serif" font-size="14.00"> 4.51MB</text>
</a>
</g>
</g>
<!-- N26 -->
<g id="node26" class="node">
<title>N26</title>
<g id="a_node26"><a xlink:title="runtime.wakep (5.51MB)">
<polygon fill="#edebe8" stroke="#b2a48e" points="954,-461 854,-461 854,-425 954,-425 954,-461"/>
<text text-anchor="middle" x="904" y="-450.1" font-family="Times,serif" font-size="8.00">runtime</text>
<text text-anchor="middle" x="904" y="-441.1" font-family="Times,serif" font-size="8.00">wakep</text>
<text text-anchor="middle" x="904" y="-432.1" font-family="Times,serif" font-size="8.00">0 of 5.51MB (4.04%)</text>
</a>
</g>
</g>
<!-- N24&#45;&gt;N26 -->
<g id="edge13" class="edge">
<title>N24&#45;&gt;N26</title>
<g id="a_edge13"><a xlink:title="runtime.resetspinning &#45;&gt; runtime.wakep (5.51MB)">
<path fill="none" stroke="#b2a48e" d="M904,-515.84C904,-503.28 904,-485.98 904,-471.5"/>
<polygon fill="#b2a48e" stroke="#b2a48e" points="907.5,-471.11 904,-461.11 900.5,-471.11 907.5,-471.11"/>
</a>
</g>
<g id="a_edge13&#45;label"><a xlink:title="runtime.resetspinning &#45;&gt; runtime.wakep (5.51MB)">
<text text-anchor="middle" x="934.5" y="-486.8" font-family="Times,serif" font-size="14.00"> 5.51MB</text>
</a>
</g>
</g>
<!-- N25 -->
<g id="node25" class="node">
<title>N25</title>
<g id="a_node25"><a xlink:title="runtime.startm (5.51MB)">
<polygon fill="#edebe8" stroke="#b2a48e" points="954,-366 854,-366 854,-330 954,-330 954,-366"/>
<text text-anchor="middle" x="904" y="-355.1" font-family="Times,serif" font-size="8.00">runtime</text>
<text text-anchor="middle" x="904" y="-346.1" font-family="Times,serif" font-size="8.00">startm</text>
<text text-anchor="middle" x="904" y="-337.1" font-family="Times,serif" font-size="8.00">0 of 5.51MB (4.04%)</text>
</a>
</g>
</g>
<!-- N25&#45;&gt;N20 -->
<g id="edge15" class="edge">
<title>N25&#45;&gt;N20</title>
<g id="a_edge15"><a xlink:title="runtime.startm &#45;&gt; runtime.newm (5.51MB)">
<path fill="none" stroke="#b2a48e" d="M904,-329.84C904,-317.28 904,-299.98 904,-285.5"/>
<polygon fill="#b2a48e" stroke="#b2a48e" points="907.5,-285.11 904,-275.11 900.5,-285.11 907.5,-285.11"/>
</a>
</g>
<g id="a_edge15&#45;label"><a xlink:title="runtime.startm &#45;&gt; runtime.newm (5.51MB)">
<text text-anchor="middle" x="934.5" y="-296.8" font-family="Times,serif" font-size="14.00"> 5.51MB</text>
</a>
</g>
</g>
<!-- N26&#45;&gt;N25 -->
<g id="edge16" class="edge">
<title>N26&#45;&gt;N25</title>
<g id="a_edge16"><a xlink:title="runtime.wakep &#45;&gt; runtime.startm (5.51MB)">
<path fill="none" stroke="#b2a48e" d="M904,-424.94C904,-411.39 904,-392.18 904,-376.47"/>
<polygon fill="#b2a48e" stroke="#b2a48e" points="907.5,-376.26 904,-366.26 900.5,-376.26 907.5,-376.26"/>
</a>
</g>
<g id="a_edge16&#45;label"><a xlink:title="runtime.wakep &#45;&gt; runtime.startm (5.51MB)">
<text text-anchor="middle" x="934.5" y="-391.8" font-family="Times,serif" font-size="14.00"> 5.51MB</text>
</a>
</g>
</g>
<!-- N27&#45;&gt;N12 -->
<g id="edge5" class="edge">
<title>N27&#45;&gt;N12</title>
<g id="a_edge5"><a xlink:title="testing.(*B).runN &#45;&gt; github.com/feichai0017/NoKV/benchmark.BenchmarkNoKVWrite (128.50MB)">
<path fill="none" stroke="#b20300" stroke-width="5" d="M672,-781.91C672,-769.78 672,-754.41 672,-741.36"/>
<polygon fill="#b20300" stroke="#b20300" stroke-width="5" points="676.38,-741.07 672,-731.07 667.63,-741.07 676.38,-741.07"/>
</a>
</g>
<g id="a_edge5&#45;label"><a xlink:title="testing.(*B).runN &#45;&gt; github.com/feichai0017/NoKV/benchmark.BenchmarkNoKVWrite (128.50MB)">
<text text-anchor="middle" x="711.5" y="-752.8" font-family="Times,serif" font-size="14.00"> 128.50MB</text>
</a>
</g>
</g>
</g>
</svg>
