<?xml version="1.0" encoding="UTF-8" standalone="no"?>
<!DOCTYPE svg PUBLIC "-//W3C//DTD SVG 1.1//EN"
 "http://www.w3.org/Graphics/SVG/1.1/DTD/svg11.dtd">
<!-- Generated by graphviz version 2.43.0 (0)
 -->
<!-- Title: benchmark.test Pages: 1 -->
<svg width="968pt" height="1049pt"
 viewBox="0.00 0.00 968.00 1049.00" xmlns="http://www.w3.org/2000/svg" xmlns:xlink="http://www.w3.org/1999/xlink">
<g id="graph0" class="graph" transform="scale(1 1) rotate(0) translate(4 1045)">
<title>benchmark.test</title>
<polygon fill="white" stroke="transparent" points="-4,4 -4,-1045 964,-1045 964,4 -4,4"/>
<g id="clust1" class="cluster">
<title>cluster_L</title>
<polygon fill="none" stroke="black" points="8,-864 8,-1033 610,-1033 610,-864 8,-864"/>
</g>
<!-- File: benchmark.test -->
<g id="node1" class="node">
<title>File: benchmark.test</title>
<g id="a_node1"><a xlink:title="benchmark.test">
<polygon fill="#f8f8f8" stroke="black" points="602.5,-1025 15.5,-1025 15.5,-872 602.5,-872 602.5,-1025"/>
<text text-anchor="start" x="23.5" y="-1008.2" font-family="Times,serif" font-size="16.00">File: benchmark.test</text>
<text text-anchor="start" x="23.5" y="-990.2" font-family="Times,serif" font-size="16.00">Build ID: 75d7c928f24edb4b2f34fd24f601670b42c08798</text>
<text text-anchor="start" x="23.5" y="-972.2" font-family="Times,serif" font-size="16.00">Type: inuse_space</text>
<text text-anchor="start" x="23.5" y="-954.2" font-family="Times,serif" font-size="16.00">Time: 2025&#45;10&#45;16 00:40:32 AEDT</text>
<text text-anchor="start" x="23.5" y="-936.2" font-family="Times,serif" font-size="16.00">Showing nodes accounting for 133.01MB, 99.25% of 134.01MB total</text>
<text text-anchor="start" x="23.5" y="-918.2" font-family="Times,serif" font-size="16.00">Dropped 10 nodes (cum &lt;= 0.67MB)</text>
<text text-anchor="start" x="23.5" y="-881.2" font-family="Times,serif" font-size="16.00">See https://git.io/JfYMW for how to read the graph</text>
</a>
</g>
</g>
<!-- N1 -->
<g id="node1" class="node">
<title>N1</title>
<g id="a_node1"><a xlink:title="github.com/feichai0017/NoKV/utils.newArena (128MB)">
<polygon fill="#edd5d5" stroke="#b20200" points="782,-173 562,-173 562,-87 782,-87 782,-173"/>
<text text-anchor="middle" x="672" y="-149.8" font-family="Times,serif" font-size="24.00">utils</text>
<text text-anchor="middle" x="672" y="-123.8" font-family="Times,serif" font-size="24.00">newArena</text>
<text text-anchor="middle" x="672" y="-97.8" font-family="Times,serif" font-size="24.00">128MB (95.51%)</text>
</a>
</g>
</g>
<!-- NN1_0 -->
<g id="NN1_0" class="node">
<title>NN1_0</title>
<g id="a_NN1_0"><a xlink:title="128MB">
<polygon fill="#f8f8f8" stroke="black" points="699,-36 649,-36 645,-32 645,0 695,0 699,-4 699,-36"/>
<polyline fill="none" stroke="black" points="695,-32 645,-32 "/>
<polyline fill="none" stroke="black" points="695,-32 695,0 "/>
<polyline fill="none" stroke="black" points="695,-32 699,-36 "/>
<text text-anchor="middle" x="672" y="-16.1" font-family="Times,serif" font-size="8.00">128MB</text>
</a>
</g>
</g>
<!-- N1&#45;&gt;NN1_0 -->
<g id="edge1" class="edge">
<title>N1&#45;&gt;NN1_0</title>
<g id="a_edge1"><a xlink:title="128MB">
<path fill="none" stroke="black" d="M672,-86.79C672,-73.2 672,-58.5 672,-46.28"/>
<polygon fill="black" stroke="black" points="675.5,-46.27 672,-36.27 668.5,-46.27 675.5,-46.27"/>
</a>
</g>
<g id="a_edge1&#45;label"><a xlink:title="128MB">
<text text-anchor="middle" x="700.5" y="-57.8" font-family="Times,serif" font-size="14.00"> 128MB</text>
</a>
</g>
</g>
<!-- N2 -->
<g id="node2" class="node">
<title>N2</title>
<g id="a_node2"><a xlink:title="testing.(*B).run1.func1 (128MB)">
<polygon fill="#edd5d5" stroke="#b20200" points="723.5,-975 620.5,-975 620.5,-922 723.5,-922 723.5,-975"/>
<text text-anchor="middle" x="672" y="-964.6" font-family="Times,serif" font-size="8.00">testing</text>
<text text-anchor="middle" x="672" y="-955.6" font-family="Times,serif" font-size="8.00">(*B)</text>
<text text-anchor="middle" x="672" y="-946.6" font-family="Times,serif" font-size="8.00">run1</text>
<text text-anchor="middle" x="672" y="-937.6" font-family="Times,serif" font-size="8.00">func1</text>
<text text-anchor="middle" x="672" y="-928.6" font-family="Times,serif" font-size="8.00">0 of 128MB (95.51%)</text>
</a>
</g>
</g>
<!-- N20 -->
<g id="node20" class="node">
<title>N20</title>
<g id="a_node20"><a xlink:title="testing.(*B).runN (128MB)">
<polygon fill="#edd5d5" stroke="#b20200" points="723.5,-821 620.5,-821 620.5,-777 723.5,-777 723.5,-821"/>
<text text-anchor="middle" x="672" y="-810.6" font-family="Times,serif" font-size="8.00">testing</text>
<text text-anchor="middle" x="672" y="-801.6" font-family="Times,serif" font-size="8.00">(*B)</text>
<text text-anchor="middle" x="672" y="-792.6" font-family="Times,serif" font-size="8.00">runN</text>
<text text-anchor="middle" x="672" y="-783.6" font-family="Times,serif" font-size="8.00">0 of 128MB (95.51%)</text>
</a>
</g>
</g>
<!-- N2&#45;&gt;N20 -->
<g id="edge9" class="edge">
<title>N2&#45;&gt;N20</title>
<g id="a_edge9"><a xlink:title="testing.(*B).run1.func1 &#45;&gt; testing.(*B).runN (128MB)">
<path fill="none" stroke="#b20200" stroke-width="5" d="M672,-921.81C672,-896.6 672,-858.11 672,-831.17"/>
<polygon fill="#b20200" stroke="#b20200" stroke-width="5" points="676.38,-831.1 672,-821.1 667.63,-831.1 676.38,-831.1"/>
</a>
</g>
<g id="a_edge9&#45;label"><a xlink:title="testing.(*B).run1.func1 &#45;&gt; testing.(*B).runN (128MB)">
<text text-anchor="middle" x="700.5" y="-842.8" font-family="Times,serif" font-size="14.00"> 128MB</text>
</a>
</g>
</g>
<!-- N3 -->
<g id="node3" class="node">
<title>N3</title>
<g id="a_node3"><a xlink:title="runtime.allocm (5.01MB)">
<polygon fill="#edebe8" stroke="#b2a691" points="956,-153.5 842,-153.5 842,-106.5 956,-106.5 956,-153.5"/>
<text text-anchor="middle" x="899" y="-139.9" font-family="Times,serif" font-size="12.00">runtime</text>
<text text-anchor="middle" x="899" y="-126.9" font-family="Times,serif" font-size="12.00">allocm</text>
<text text-anchor="middle" x="899" y="-113.9" font-family="Times,serif" font-size="12.00">5.01MB (3.74%)</text>
</a>
</g>
</g>
<!-- NN3_0 -->
<g id="NN3_0" class="node">
<title>NN3_0</title>
<g id="a_NN3_0"><a xlink:title="5.01MB">
<polygon fill="#f8f8f8" stroke="black" points="926,-36 876,-36 872,-32 872,0 922,0 926,-4 926,-36"/>
<polyline fill="none" stroke="black" points="922,-32 872,-32 "/>
<polyline fill="none" stroke="black" points="922,-32 922,0 "/>
<polyline fill="none" stroke="black" points="922,-32 926,-36 "/>
<text text-anchor="middle" x="899" y="-16.1" font-family="Times,serif" font-size="8.00">2kB</text>
</a>
</g>
</g>
<!-- N3&#45;&gt;NN3_0 -->
<g id="edge2" class="edge">
<title>N3&#45;&gt;NN3_0</title>
<g id="a_edge2"><a xlink:title="5.01MB">
<path fill="none" stroke="black" d="M899,-106.47C899,-89.03 899,-64.8 899,-46.26"/>
<polygon fill="black" stroke="black" points="902.5,-46.1 899,-36.1 895.5,-46.1 902.5,-46.1"/>
</a>
</g>
<g id="a_edge2&#45;label"><a xlink:title="5.01MB">
<text text-anchor="middle" x="929.5" y="-57.8" font-family="Times,serif" font-size="14.00"> 5.01MB</text>
</a>
</g>
</g>
<!-- N4 -->
<g id="node4" class="node">
<title>N4</title>
<g id="a_node4"><a xlink:title="runtime.mcall (4.01MB)">
<polygon fill="#edebe9" stroke="#b2a997" points="949,-817 849,-817 849,-781 949,-781 949,-817"/>
<text text-anchor="middle" x="899" y="-806.1" font-family="Times,serif" font-size="8.00">runtime</text>
<text text-anchor="middle" x="899" y="-797.1" font-family="Times,serif" font-size="8.00">mcall</text>
<text text-anchor="middle" x="899" y="-788.1" font-family="Times,serif" font-size="8.00">0 of 4.01MB (2.99%)</text>
</a>
</g>
</g>
<!-- N16 -->
<g id="node16" class="node">
<title>N16</title>
<g id="a_node16"><a xlink:title="runtime.park_m (4.01MB)">
<polygon fill="#edebe9" stroke="#b2a997" points="949,-726 849,-726 849,-690 949,-690 949,-726"/>
<text text-anchor="middle" x="899" y="-715.1" font-family="Times,serif" font-size="8.00">runtime</text>
<text text-anchor="middle" x="899" y="-706.1" font-family="Times,serif" font-size="8.00">park_m</text>
<text text-anchor="middle" x="899" y="-697.1" font-family="Times,serif" font-size="8.00">0 of 4.01MB (2.99%)</text>
</a>
</g>
</g>
<!-- N4&#45;&gt;N16 -->
<g id="edge16" class="edge">
<title>N4&#45;&gt;N16</title>
<g id="a_edge16"><a xlink:title="runtime.mcall &#45;&gt; runtime.park_m (4.01MB)">
<path fill="none" stroke="#b2a997" d="M899,-780.84C899,-768.28 899,-750.98 899,-736.5"/>
<polygon fill="#b2a997" stroke="#b2a997" points="902.5,-736.11 899,-726.11 895.5,-736.11 902.5,-736.11"/>
</a>
</g>
<g id="a_edge16&#45;label"><a xlink:title="runtime.mcall &#45;&gt; runtime.park_m (4.01MB)">
<text text-anchor="middle" x="929.5" y="-747.8" font-family="Times,serif" font-size="14.00"> 4.01MB</text>
</a>
</g>
</g>
<!-- N5 -->
<g id="node5" class="node">
<title>N5</title>
<g id="a_node5"><a xlink:title="runtime.schedule (5.01MB)">
<polygon fill="#edebe8" stroke="#b2a691" points="949,-639 849,-639 849,-603 949,-603 949,-639"/>
<text text-anchor="middle" x="899" y="-628.1" font-family="Times,serif" font-size="8.00">runtime</text>
<text text-anchor="middle" x="899" y="-619.1" font-family="Times,serif" font-size="8.00">schedule</text>
<text text-anchor="middle" x="899" y="-610.1" font-family="Times,serif" font-size="8.00">0 of 5.01MB (3.74%)</text>
</a>
</g>
</g>
<!-- N17 -->
<g id="node17" class="node">
<title>N17</title>
<g id="a_node17"><a xlink:title="runtime.resetspinning (5.01MB)">
<polygon fill="#edebe8" stroke="#b2a691" points="949,-552 849,-552 849,-516 949,-516 949,-552"/>
<text text-anchor="middle" x="899" y="-541.1" font-family="Times,serif" font-size="8.00">runtime</text>
<text text-anchor="middle" x="899" y="-532.1" font-family="Times,serif" font-size="8.00">resetspinning</text>
<text text-anchor="middle" x="899" y="-523.1" font-family="Times,serif" font-size="8.00">0 of 5.01MB (3.74%)</text>
</a>
</g>
</g>
<!-- N5&#45;&gt;N17 -->
<g id="edge13" class="edge">
<title>N5&#45;&gt;N17</title>
<g id="a_edge13"><a xlink:title="runtime.schedule &#45;&gt; runtime.resetspinning (5.01MB)">
<path fill="none" stroke="#b2a691" d="M899,-602.8C899,-591.16 899,-575.55 899,-562.24"/>
<polygon fill="#b2a691" stroke="#b2a691" points="902.5,-562.18 899,-552.18 895.5,-562.18 902.5,-562.18"/>
</a>
</g>
<g id="a_edge13&#45;label"><a xlink:title="runtime.schedule &#45;&gt; runtime.resetspinning (5.01MB)">
<text text-anchor="middle" x="929.5" y="-573.8" font-family="Times,serif" font-size="14.00"> 5.01MB</text>
</a>
</g>
</g>
<!-- N6 -->
<g id="node6" class="node">
<title>N6</title>
<g id="a_node6"><a xlink:title="runtime.mstart (1MB)">
<polygon fill="#edecec" stroke="#b2b0ab" points="830.5,-966.5 743.5,-966.5 743.5,-930.5 830.5,-930.5 830.5,-966.5"/>
<text text-anchor="middle" x="787" y="-955.6" font-family="Times,serif" font-size="8.00">runtime</text>
<text text-anchor="middle" x="787" y="-946.6" font-family="Times,serif" font-size="8.00">mstart</text>
<text text-anchor="middle" x="787" y="-937.6" font-family="Times,serif" font-size="8.00">0 of 1MB (0.75%)</text>
</a>
</g>
</g>
<!-- N13 -->
<g id="node13" class="node">
<title>N13</title>
<g id="a_node13"><a xlink:title="runtime.mstart0 (1MB)">
<polygon fill="#edecec" stroke="#b2b0ab" points="830.5,-817 743.5,-817 743.5,-781 830.5,-781 830.5,-817"/>
<text text-anchor="middle" x="787" y="-806.1" font-family="Times,serif" font-size="8.00">runtime</text>
<text text-anchor="middle" x="787" y="-797.1" font-family="Times,serif" font-size="8.00">mstart0</text>
<text text-anchor="middle" x="787" y="-788.1" font-family="Times,serif" font-size="8.00">0 of 1MB (0.75%)</text>
</a>
</g>
</g>
<!-- N6&#45;&gt;N13 -->
<g id="edge18" class="edge">
<title>N6&#45;&gt;N13</title>
<g id="a_edge18"><a xlink:title="runtime.mstart &#45;&gt; runtime.mstart0 (1MB)">
<path fill="none" stroke="#b2b0ab" d="M787,-930.29C787,-904.98 787,-857.46 787,-827.34"/>
<polygon fill="#b2b0ab" stroke="#b2b0ab" points="790.5,-827.1 787,-817.1 783.5,-827.1 790.5,-827.1"/>
</a>
</g>
<g id="a_edge18&#45;label"><a xlink:title="runtime.mstart &#45;&gt; runtime.mstart0 (1MB)">
<text text-anchor="middle" x="806.5" y="-842.8" font-family="Times,serif" font-size="14.00"> 1MB</text>
</a>
</g>
</g>
<!-- N7 -->
<g id="node7" class="node">
<title>N7</title>
<g id="a_node7"><a xlink:title="github.com/feichai0017/NoKV.Open (128MB)">
<polygon fill="#edd5d5" stroke="#b20200" points="723.5,-639 620.5,-639 620.5,-603 723.5,-603 723.5,-639"/>
<text text-anchor="middle" x="672" y="-628.1" font-family="Times,serif" font-size="8.00">NoKV</text>
<text text-anchor="middle" x="672" y="-619.1" font-family="Times,serif" font-size="8.00">Open</text>
<text text-anchor="middle" x="672" y="-610.1" font-family="Times,serif" font-size="8.00">0 of 128MB (95.51%)</text>
</a>
</g>
</g>
<!-- N11 -->
<g id="node11" class="node">
<title>N11</title>
<g id="a_node11"><a xlink:title="github.com/feichai0017/NoKV/lsm.NewLSM (128MB)">
<polygon fill="#edd5d5" stroke="#b20200" points="723.5,-552 620.5,-552 620.5,-516 723.5,-516 723.5,-552"/>
<text text-anchor="middle" x="672" y="-541.1" font-family="Times,serif" font-size="8.00">lsm</text>
<text text-anchor="middle" x="672" y="-532.1" font-family="Times,serif" font-size="8.00">NewLSM</text>
<text text-anchor="middle" x="672" y="-523.1" font-family="Times,serif" font-size="8.00">0 of 128MB (95.51%)</text>
</a>
</g>
</g>
<!-- N7&#45;&gt;N11 -->
<g id="edge3" class="edge">
<title>N7&#45;&gt;N11</title>
<g id="a_edge3"><a xlink:title="github.com/feichai0017/NoKV.Open &#45;&gt; github.com/feichai0017/NoKV/lsm.NewLSM (128MB)">
<path fill="none" stroke="#b20200" stroke-width="5" d="M672,-602.8C672,-591.16 672,-575.55 672,-562.24"/>
<polygon fill="#b20200" stroke="#b20200" stroke-width="5" points="676.38,-562.18 672,-552.18 667.63,-562.18 676.38,-562.18"/>
</a>
</g>
<g id="a_edge3&#45;label"><a xlink:title="github.com/feichai0017/NoKV.Open &#45;&gt; github.com/feichai0017/NoKV/lsm.NewLSM (128MB)">
<text text-anchor="middle" x="700.5" y="-573.8" font-family="Times,serif" font-size="14.00"> 128MB</text>
</a>
</g>
</g>
<!-- N8 -->
<g id="node8" class="node">
<title>N8</title>
<g id="a_node8"><a xlink:title="github.com/feichai0017/NoKV/benchmark.BenchmarkNoKVWrite (128MB)">
<polygon fill="#edd5d5" stroke="#b20200" points="725.5,-726 618.5,-726 618.5,-690 725.5,-690 725.5,-726"/>
<text text-anchor="middle" x="672" y="-715.1" font-family="Times,serif" font-size="8.00">benchmark</text>
<text text-anchor="middle" x="672" y="-706.1" font-family="Times,serif" font-size="8.00">BenchmarkNoKVWrite</text>
<text text-anchor="middle" x="672" y="-697.1" font-family="Times,serif" font-size="8.00">0 of 128MB (95.51%)</text>
</a>
</g>
</g>
<!-- N8&#45;&gt;N7 -->
<g id="edge4" class="edge">
<title>N8&#45;&gt;N7</title>
<g id="a_edge4"><a xlink:title="github.com/feichai0017/NoKV/benchmark.BenchmarkNoKVWrite &#45;&gt; github.com/feichai0017/NoKV.Open (128MB)">
<path fill="none" stroke="#b20200" stroke-width="5" d="M672,-689.8C672,-678.16 672,-662.55 672,-649.24"/>
<polygon fill="#b20200" stroke="#b20200" stroke-width="5" points="676.38,-649.18 672,-639.18 667.63,-649.18 676.38,-649.18"/>
</a>
</g>
<g id="a_edge4&#45;label"><a xlink:title="github.com/feichai0017/NoKV/benchmark.BenchmarkNoKVWrite &#45;&gt; github.com/feichai0017/NoKV.Open (128MB)">
<text text-anchor="middle" x="700.5" y="-660.8" font-family="Times,serif" font-size="14.00"> 128MB</text>
</a>
</g>
</g>
<!-- N9 -->
<g id="node9" class="node">
<title>N9</title>
<g id="a_node9"><a xlink:title="github.com/feichai0017/NoKV/lsm.(*LSM).openMemTable (128MB)">
<polygon fill="#edd5d5" stroke="#b20200" points="723.5,-370 620.5,-370 620.5,-326 723.5,-326 723.5,-370"/>
<text text-anchor="middle" x="672" y="-359.6" font-family="Times,serif" font-size="8.00">lsm</text>
<text text-anchor="middle" x="672" y="-350.6" font-family="Times,serif" font-size="8.00">(*LSM)</text>
<text text-anchor="middle" x="672" y="-341.6" font-family="Times,serif" font-size="8.00">openMemTable</text>
<text text-anchor="middle" x="672" y="-332.6" font-family="Times,serif" font-size="8.00">0 of 128MB (95.51%)</text>
</a>
</g>
</g>
<!-- N12 -->
<g id="node12" class="node">
<title>N12</title>
<g id="a_node12"><a xlink:title="github.com/feichai0017/NoKV/utils.NewSkiplist (128MB)">
<polygon fill="#edd5d5" stroke="#b20200" points="723.5,-275 620.5,-275 620.5,-239 723.5,-239 723.5,-275"/>
<text text-anchor="middle" x="672" y="-264.1" font-family="Times,serif" font-size="8.00">utils</text>
<text text-anchor="middle" x="672" y="-255.1" font-family="Times,serif" font-size="8.00">NewSkiplist</text>
<text text-anchor="middle" x="672" y="-246.1" font-family="Times,serif" font-size="8.00">0 of 128MB (95.51%)</text>
</a>
</g>
</g>
<!-- N9&#45;&gt;N12 -->
<g id="edge5" class="edge">
<title>N9&#45;&gt;N12</title>
<g id="a_edge5"><a xlink:title="github.com/feichai0017/NoKV/lsm.(*LSM).openMemTable &#45;&gt; github.com/feichai0017/NoKV/utils.NewSkiplist (128MB)">
<path fill="none" stroke="#b20200" stroke-width="5" d="M672,-325.91C672,-313.78 672,-298.41 672,-285.36"/>
<polygon fill="#b20200" stroke="#b20200" stroke-width="5" points="676.38,-285.07 672,-275.07 667.63,-285.07 676.38,-285.07"/>
</a>
</g>
<g id="a_edge5&#45;label"><a xlink:title="github.com/feichai0017/NoKV/lsm.(*LSM).openMemTable &#45;&gt; github.com/feichai0017/NoKV/utils.NewSkiplist (128MB)">
<text text-anchor="middle" x="700.5" y="-296.8" font-family="Times,serif" font-size="14.00"> 128MB</text>
</a>
</g>
</g>
<!-- N10 -->
<g id="node10" class="node">
<title>N10</title>
<g id="a_node10"><a xlink:title="github.com/feichai0017/NoKV/lsm.(*LSM).recovery (128MB)">
<polygon fill="#edd5d5" stroke="#b20200" points="723.5,-465 620.5,-465 620.5,-421 723.5,-421 723.5,-465"/>
<text text-anchor="middle" x="672" y="-454.6" font-family="Times,serif" font-size="8.00">lsm</text>
<text text-anchor="middle" x="672" y="-445.6" font-family="Times,serif" font-size="8.00">(*LSM)</text>
<text text-anchor="middle" x="672" y="-436.6" font-family="Times,serif" font-size="8.00">recovery</text>
<text text-anchor="middle" x="672" y="-427.6" font-family="Times,serif" font-size="8.00">0 of 128MB (95.51%)</text>
</a>
</g>
</g>
<!-- N10&#45;&gt;N9 -->
<g id="edge6" class="edge">
<title>N10&#45;&gt;N9</title>
<g id="a_edge6"><a xlink:title="github.com/feichai0017/NoKV/lsm.(*LSM).recovery &#45;&gt; github.com/feichai0017/NoKV/lsm.(*LSM).openMemTable (128MB)">
<path fill="none" stroke="#b20200" stroke-width="5" d="M672,-420.9C672,-408.89 672,-393.62 672,-380.24"/>
<polygon fill="#b20200" stroke="#b20200" stroke-width="5" points="676.38,-380.02 672,-370.02 667.63,-380.02 676.38,-380.02"/>
</a>
</g>
<g id="a_edge6&#45;label"><a xlink:title="github.com/feichai0017/NoKV/lsm.(*LSM).recovery &#45;&gt; github.com/feichai0017/NoKV/lsm.(*LSM).openMemTable (128MB)">
<text text-anchor="middle" x="700.5" y="-391.8" font-family="Times,serif" font-size="14.00"> 128MB</text>
</a>
</g>
</g>
<!-- N11&#45;&gt;N10 -->
<g id="edge7" class="edge">
<title>N11&#45;&gt;N10</title>
<g id="a_edge7"><a xlink:title="github.com/feichai0017/NoKV/lsm.NewLSM &#45;&gt; github.com/feichai0017/NoKV/lsm.(*LSM).recovery (128MB)">
<path fill="none" stroke="#b20200" stroke-width="5" d="M672,-515.84C672,-504.44 672,-489.13 672,-475.58"/>
<polygon fill="#b20200" stroke="#b20200" stroke-width="5" points="676.38,-475.19 672,-465.19 667.63,-475.19 676.38,-475.19"/>
</a>
</g>
<g id="a_edge7&#45;label"><a xlink:title="github.com/feichai0017/NoKV/lsm.NewLSM &#45;&gt; github.com/feichai0017/NoKV/lsm.(*LSM).recovery (128MB)">
<text text-anchor="middle" x="700.5" y="-486.8" font-family="Times,serif" font-size="14.00"> 128MB</text>
</a>
</g>
</g>
<!-- N12&#45;&gt;N1 -->
<g id="edge8" class="edge">
<title>N12&#45;&gt;N1</title>
<g id="a_edge8"><a xlink:title="github.com/feichai0017/NoKV/utils.NewSkiplist &#45;&gt; github.com/feichai0017/NoKV/utils.newArena (128MB)">
<path fill="none" stroke="#b20200" stroke-width="5" d="M672,-238.88C672,-224.53 672,-203.26 672,-183.39"/>
<polygon fill="#b20200" stroke="#b20200" stroke-width="5" points="676.38,-183.17 672,-173.17 667.63,-183.17 676.38,-183.17"/>
</a>
</g>
<g id="a_edge8&#45;label"><a xlink:title="github.com/feichai0017/NoKV/utils.NewSkiplist &#45;&gt; github.com/feichai0017/NoKV/utils.newArena (128MB)">
<text text-anchor="middle" x="700.5" y="-209.8" font-family="Times,serif" font-size="14.00"> 128MB</text>
<text text-anchor="middle" x="700.5" y="-194.8" font-family="Times,serif" font-size="14.00"> (inline)</text>
</a>
</g>
</g>
<!-- N14 -->
<g id="node14" class="node">
<title>N14</title>
<g id="a_node14"><a xlink:title="runtime.mstart1 (1MB)">
<polygon fill="#edecec" stroke="#b2b0ab" points="830.5,-726 743.5,-726 743.5,-690 830.5,-690 830.5,-726"/>
<text text-anchor="middle" x="787" y="-715.1" font-family="Times,serif" font-size="8.00">runtime</text>
<text text-anchor="middle" x="787" y="-706.1" font-family="Times,serif" font-size="8.00">mstart1</text>
<text text-anchor="middle" x="787" y="-697.1" font-family="Times,serif" font-size="8.00">0 of 1MB (0.75%)</text>
</a>
</g>
</g>
<!-- N13&#45;&gt;N14 -->
<g id="edge19" class="edge">
<title>N13&#45;&gt;N14</title>
<g id="a_edge19"><a xlink:title="runtime.mstart0 &#45;&gt; runtime.mstart1 (1MB)">
<path fill="none" stroke="#b2b0ab" d="M787,-780.84C787,-768.28 787,-750.98 787,-736.5"/>
<polygon fill="#b2b0ab" stroke="#b2b0ab" points="790.5,-736.11 787,-726.11 783.5,-736.11 790.5,-736.11"/>
</a>
</g>
<g id="a_edge19&#45;label"><a xlink:title="runtime.mstart0 &#45;&gt; runtime.mstart1 (1MB)">
<text text-anchor="middle" x="806.5" y="-747.8" font-family="Times,serif" font-size="14.00"> 1MB</text>
</a>
</g>
</g>
<!-- N14&#45;&gt;N5 -->
<g id="edge20" class="edge">
<title>N14&#45;&gt;N5</title>
<g id="a_edge20"><a xlink:title="runtime.mstart1 &#45;&gt; runtime.schedule (1MB)">
<path fill="none" stroke="#b2b0ab" d="M809.66,-689.8C826.52,-677.01 849.7,-659.42 868.22,-645.36"/>
<polygon fill="#b2b0ab" stroke="#b2b0ab" points="870.52,-648.01 876.37,-639.18 866.29,-642.43 870.52,-648.01"/>
</a>
</g>
<g id="a_edge20&#45;label"><a xlink:title="runtime.mstart1 &#45;&gt; runtime.schedule (1MB)">
<text text-anchor="middle" x="868.5" y="-660.8" font-family="Times,serif" font-size="14.00"> 1MB</text>
</a>
</g>
</g>
<!-- N15 -->
<g id="node15" class="node">
<title>N15</title>
<g id="a_node15"><a xlink:title="runtime.newm (5.01MB)">
<polygon fill="#edebe8" stroke="#b2a691" points="949,-275 849,-275 849,-239 949,-239 949,-275"/>
<text text-anchor="middle" x="899" y="-264.1" font-family="Times,serif" font-size="8.00">runtime</text>
<text text-anchor="middle" x="899" y="-255.1" font-family="Times,serif" font-size="8.00">newm</text>
<text text-anchor="middle" x="899" y="-246.1" font-family="Times,serif" font-size="8.00">0 of 5.01MB (3.74%)</text>
</a>
</g>
</g>
<!-- N15&#45;&gt;N3 -->
<g id="edge11" class="edge">
<title>N15&#45;&gt;N3</title>
<g id="a_edge11"><a xlink:title="runtime.newm &#45;&gt; runtime.allocm (5.01MB)">
<path fill="none" stroke="#b2a691" d="M899,-238.88C899,-219.66 899,-188.02 899,-163.96"/>
<polygon fill="#b2a691" stroke="#b2a691" points="902.5,-163.84 899,-153.84 895.5,-163.84 902.5,-163.84"/>
</a>
</g>
<g id="a_edge11&#45;label"><a xlink:title="runtime.newm &#45;&gt; runtime.allocm (5.01MB)">
<text text-anchor="middle" x="929.5" y="-202.3" font-family="Times,serif" font-size="14.00"> 5.01MB</text>
</a>
</g>
</g>
<!-- N16&#45;&gt;N5 -->
<g id="edge17" class="edge">
<title>N16&#45;&gt;N5</title>
<g id="a_edge17"><a xlink:title="runtime.park_m &#45;&gt; runtime.schedule (4.01MB)">
<path fill="none" stroke="#b2a997" d="M899,-689.8C899,-678.16 899,-662.55 899,-649.24"/>
<polygon fill="#b2a997" stroke="#b2a997" points="902.5,-649.18 899,-639.18 895.5,-649.18 902.5,-649.18"/>
</a>
</g>
<g id="a_edge17&#45;label"><a xlink:title="runtime.park_m &#45;&gt; runtime.schedule (4.01MB)">
<text text-anchor="middle" x="929.5" y="-660.8" font-family="Times,serif" font-size="14.00"> 4.01MB</text>
</a>
</g>
</g>
<!-- N19 -->
<g id="node19" class="node">
<title>N19</title>
<g id="a_node19"><a xlink:title="runtime.wakep (5.01MB)">
<polygon fill="#edebe8" stroke="#b2a691" points="949,-461 849,-461 849,-425 949,-425 949,-461"/>
<text text-anchor="middle" x="899" y="-450.1" font-family="Times,serif" font-size="8.00">runtime</text>
<text text-anchor="middle" x="899" y="-441.1" font-family="Times,serif" font-size="8.00">wakep</text>
<text text-anchor="middle" x="899" y="-432.1" font-family="Times,serif" font-size="8.00">0 of 5.01MB (3.74%)</text>
</a>
</g>
</g>
<!-- N17&#45;&gt;N19 -->
<g id="edge12" class="edge">
<title>N17&#45;&gt;N19</title>
<g id="a_edge12"><a xlink:title="runtime.resetspinning &#45;&gt; runtime.wakep (5.01MB)">
<path fill="none" stroke="#b2a691" d="M899,-515.84C899,-503.28 899,-485.98 899,-471.5"/>
<polygon fill="#b2a691" stroke="#b2a691" points="902.5,-471.11 899,-461.11 895.5,-471.11 902.5,-471.11"/>
</a>
</g>
<g id="a_edge12&#45;label"><a xlink:title="runtime.resetspinning &#45;&gt; runtime.wakep (5.01MB)">
<text text-anchor="middle" x="929.5" y="-486.8" font-family="Times,serif" font-size="14.00"> 5.01MB</text>
</a>
</g>
</g>
<!-- N18 -->
<g id="node18" class="node">
<title>N18</title>
<g id="a_node18"><a xlink:title="runtime.startm (5.01MB)">
<polygon fill="#edebe8" stroke="#b2a691" points="949,-366 849,-366 849,-330 949,-330 949,-366"/>
<text text-anchor="middle" x="899" y="-355.1" font-family="Times,serif" font-size="8.00">runtime</text>
<text text-anchor="middle" x="899" y="-346.1" font-family="Times,serif" font-size="8.00">startm</text>
<text text-anchor="middle" x="899" y="-337.1" font-family="Times,serif" font-size="8.00">0 of 5.01MB (3.74%)</text>
</a>
</g>
</g>
<!-- N18&#45;&gt;N15 -->
<g id="edge14" class="edge">
<title>N18&#45;&gt;N15</title>
<g id="a_edge14"><a xlink:title="runtime.startm &#45;&gt; runtime.newm (5.01MB)">
<path fill="none" stroke="#b2a691" d="M899,-329.84C899,-317.28 899,-299.98 899,-285.5"/>
<polygon fill="#b2a691" stroke="#b2a691" points="902.5,-285.11 899,-275.11 895.5,-285.11 902.5,-285.11"/>
</a>
</g>
<g id="a_edge14&#45;label"><a xlink:title="runtime.startm &#45;&gt; runtime.newm (5.01MB)">
<text text-anchor="middle" x="929.5" y="-296.8" font-family="Times,serif" font-size="14.00"> 5.01MB</text>
</a>
</g>
</g>
<!-- N19&#45;&gt;N18 -->
<g id="edge15" class="edge">
<title>N19&#45;&gt;N18</title>
<g id="a_edge15"><a xlink:title="runtime.wakep &#45;&gt; runtime.startm (5.01MB)">
<path fill="none" stroke="#b2a691" d="M899,-424.94C899,-411.39 899,-392.18 899,-376.47"/>
<polygon fill="#b2a691" stroke="#b2a691" points="902.5,-376.26 899,-366.26 895.5,-376.26 902.5,-376.26"/>
</a>
</g>
<g id="a_edge15&#45;label"><a xlink:title="runtime.wakep &#45;&gt; runtime.startm (5.01MB)">
<text text-anchor="middle" x="929.5" y="-391.8" font-family="Times,serif" font-size="14.00"> 5.01MB</text>
</a>
</g>
</g>
<!-- N20&#45;&gt;N8 -->
<g id="edge10" class="edge">
<title>N20&#45;&gt;N8</title>
<g id="a_edge10"><a xlink:title="testing.(*B).runN &#45;&gt; github.com/feichai0017/NoKV/benchmark.BenchmarkNoKVWrite (128MB)">
<path fill="none" stroke="#b20200" stroke-width="5" d="M672,-776.91C672,-764.78 672,-749.41 672,-736.36"/>
<polygon fill="#b20200" stroke="#b20200" stroke-width="5" points="676.38,-736.07 672,-726.07 667.63,-736.07 676.38,-736.07"/>
</a>
</g>
<g id="a_edge10&#45;label"><a xlink:title="testing.(*B).runN &#45;&gt; github.com/feichai0017/NoKV/benchmark.BenchmarkNoKVWrite (128MB)">
<text text-anchor="middle" x="700.5" y="-747.8" font-family="Times,serif" font-size="14.00"> 128MB</text>
</a>
</g>
</g>
</g>
</svg>
