<svg xmlns="http://www.w3.org/2000/svg" viewBox="0 0 1600 980" font-family="Inter, -apple-system, BlinkMacSystemFont, 'Segoe UI', sans-serif">
  <defs>
    <marker id="arrow" viewBox="0 0 10 10" refX="8.5" refY="5" markerWidth="7" markerHeight="7" orient="auto-start-reverse">
      <path d="M 0 0 L 10 5 L 0 10 z" fill="#64748b"/>
    </marker>
    <marker id="arrow-indigo" viewBox="0 0 10 10" refX="8.5" refY="5" markerWidth="7" markerHeight="7" orient="auto-start-reverse">
      <path d="M 0 0 L 10 5 L 0 10 z" fill="#6366f1"/>
    </marker>
    <filter id="soft-shadow" x="-20%" y="-20%" width="140%" height="140%">
      <feDropShadow dx="0" dy="8" stdDeviation="10" flood-color="#0f172a" flood-opacity="0.08"/>
    </filter>
    <style>
      .title { font-size: 36px; font-weight: 760; fill: #0f172a; }
      .subtitle { font-size: 16px; font-weight: 520; fill: #64748b; }
      .layer-label { font-size: 15px; font-weight: 760; letter-spacing: 1.8px; fill: #475569; }
      .section-title { font-size: 18px; font-weight: 760; fill: #0f172a; }
      .small-title { font-size: 15px; font-weight: 760; fill: #0f172a; }
      .body { font-size: 13px; font-weight: 520; fill: #475569; }
      .tiny { font-size: 11px; font-weight: 520; fill: #64748b; }
      .mono { font-family: 'SFMono-Regular', ui-monospace, Menlo, monospace; font-size: 12px; font-weight: 600; fill: #334155; }
    </style>
  </defs>

  <rect width="1600" height="980" fill="#f8fafc"/>

  <text x="80" y="70" class="title">NoKV Current Architecture</text>
  <text x="80" y="100" class="subtitle">Namespace-native metadata service over a distributed transaction and storage substrate</text>

  <rect x="80" y="130" width="1440" height="132" rx="18" fill="#ffffff" stroke="#cbd5e1" stroke-width="2" filter="url(#soft-shadow)"/>
  <text x="105" y="160" class="layer-label">LAYER 3 - NAMESPACE / AGENT WORKSPACE</text>

  <rect x="120" y="182" width="250" height="48" rx="12" fill="#eff6ff" stroke="#60a5fa" stroke-width="1.6"/>
  <text x="245" y="203" text-anchor="middle" class="small-title">Distributed FS</text>
  <text x="245" y="221" text-anchor="middle" class="tiny">FUSE / NFS / DFS frontend</text>

  <rect x="405" y="182" width="250" height="48" rx="12" fill="#eff6ff" stroke="#60a5fa" stroke-width="1.6"/>
  <text x="530" y="203" text-anchor="middle" class="small-title">Object Namespace</text>
  <text x="530" y="221" text-anchor="middle" class="tiny">bucket / prefix / version metadata</text>

  <rect x="690" y="182" width="270" height="48" rx="12" fill="#eff6ff" stroke="#60a5fa" stroke-width="1.6"/>
  <text x="825" y="203" text-anchor="middle" class="small-title">AI Dataset / Agent Workspace</text>
  <text x="825" y="221" text-anchor="middle" class="tiny">checkpoint, snapshot, watch streams</text>

  <rect x="1000" y="182" width="220" height="48" rx="12" fill="#ecfeff" stroke="#22d3ee" stroke-width="1.6"/>
  <text x="1110" y="203" text-anchor="middle" class="small-title">fsmeta client</text>
  <text x="1110" y="221" text-anchor="middle" class="tiny">Go typed client + gRPC</text>

  <rect x="1260" y="174" width="220" height="64" rx="14" fill="#ccfbf1" stroke="#14b8a6" stroke-width="2.2"/>
  <text x="1370" y="198" text-anchor="middle" class="small-title">nokv-fsmeta</text>
  <text x="1370" y="218" text-anchor="middle" class="tiny">gateway / runtime host</text>

  <rect x="80" y="300" width="1440" height="420" rx="18" fill="#ffffff" stroke="#cbd5e1" stroke-width="2" filter="url(#soft-shadow)"/>
  <text x="105" y="330" class="layer-label">LAYER 2 - DISTRIBUTED METADATA SUBSTRATE</text>

  <rect x="480" y="348" width="640" height="76" rx="16" fill="#ecfdf5" stroke="#10b981" stroke-width="2.2"/>
  <text x="800" y="374" text-anchor="middle" class="section-title">fsmeta service boundary</text>
  <text x="800" y="396" text-anchor="middle" class="body">server-side Create / ReadDirPlus / WatchSubtree / SnapshotSubtree / RenameSubtree</text>
  <text x="800" y="414" text-anchor="middle" class="mono">fsmeta/server -> fsmeta/exec -> fsmeta/runtime/raftstore</text>

  <rect x="115" y="460" width="420" height="180" rx="16" fill="#faf5ff" stroke="#8b5cf6" stroke-width="2.2"/>
  <text x="325" y="490" text-anchor="middle" fill="#6d28d9" font-size="18" font-weight="760">Truth Plane</text>
  <text x="325" y="514" text-anchor="middle" class="mono">meta/root/</text>
  <line x1="145" y1="530" x2="505" y2="530" stroke="#ddd6fe" stroke-width="1.5"/>
  <text x="145" y="555" class="body">- rooted typed event log and snapshots</text>
  <text x="145" y="578" class="body">- mount, subtree authority, quota fence</text>
  <text x="145" y="601" class="body">- snapshot epoch and replay/watch catch-up</text>
  <text x="145" y="624" class="body">- replicated root or local root backend</text>

  <rect x="590" y="460" width="420" height="180" rx="16" fill="#eef2ff" stroke="#6366f1" stroke-width="2.2"/>
  <text x="800" y="490" text-anchor="middle" fill="#4338ca" font-size="18" font-weight="760">Control Plane</text>
  <text x="800" y="514" text-anchor="middle" class="mono">coordinator/</text>
  <line x1="620" y1="530" x2="980" y2="530" stroke="#c7d2fe" stroke-width="1.5"/>
  <text x="620" y="555" class="body">- route catalog and store discovery</text>
  <text x="620" y="578" class="body">- TSO and global AllocID authority</text>
  <text x="620" y="601" class="body">- scheduling policy and storecontrol channel</text>
  <text x="620" y="624" class="body">- lease / primacy / HA coordinator client</text>

  <rect x="1065" y="460" width="420" height="180" rx="16" fill="#ecfdf5" stroke="#10b981" stroke-width="2.2"/>
  <text x="1275" y="490" text-anchor="middle" fill="#047857" font-size="18" font-weight="760">Execution Plane</text>
  <text x="1275" y="514" text-anchor="middle" class="mono">raftstore/</text>
  <line x1="1095" y1="530" x2="1455" y2="530" stroke="#bbf7d0" stroke-width="1.5"/>
  <text x="1095" y="555" class="body">- StoreKV RPC and region routing</text>
  <text x="1095" y="578" class="body">- store / peer / multi-Raft lifecycle</text>
  <text x="1095" y="601" class="body">- kv.Apply, snapshots, transport</text>
  <text x="1095" y="624" class="body">- localmeta: replica catalog and raft pointers</text>

  <rect x="280" y="660" width="1040" height="42" rx="12" fill="#fff7ed" stroke="#fb923c" stroke-width="2"/>
  <text x="310" y="686" class="small-title">Transaction layer</text>
  <text x="465" y="686" class="body">Percolator 2PC, AtomicMutate 1PC safety gate, MVCC codec/GC, latch manager, storage interface</text>
  <text x="1175" y="686" class="mono">txn/</text>

  <rect x="80" y="760" width="1440" height="150" rx="18" fill="#ffffff" stroke="#cbd5e1" stroke-width="2" filter="url(#soft-shadow)"/>
  <text x="105" y="790" class="layer-label">LAYER 1 - SINGLE-NODE STORAGE ENGINE</text>

  <rect x="560" y="798" width="480" height="42" rx="12" fill="#fff7ed" stroke="#f59e0b" stroke-width="2.2"/>
  <text x="800" y="815" text-anchor="middle" class="small-title">local DB facade and runtime internals</text>
  <text x="800" y="832" text-anchor="middle" class="mono">local/</text>

  <rect x="120" y="854" width="210" height="42" rx="11" fill="#fffbeb" stroke="#f59e0b" stroke-width="2"/>
  <text x="225" y="871" text-anchor="middle" class="small-title">WAL</text>
  <text x="225" y="888" text-anchor="middle" class="mono">engine/wal</text>

  <rect x="375" y="854" width="210" height="42" rx="11" fill="#fffbeb" stroke="#f59e0b" stroke-width="2"/>
  <text x="480" y="871" text-anchor="middle" class="small-title">LSM</text>
  <text x="480" y="888" text-anchor="middle" class="mono">engine/lsm</text>

  <rect x="630" y="854" width="210" height="42" rx="11" fill="#fffbeb" stroke="#f59e0b" stroke-width="2"/>
  <text x="735" y="871" text-anchor="middle" class="small-title">Manifest</text>
  <text x="735" y="888" text-anchor="middle" class="mono">engine/manifest</text>

  <rect x="885" y="854" width="250" height="42" rx="11" fill="#fffbeb" stroke="#f59e0b" stroke-width="2"/>
  <text x="1010" y="871" text-anchor="middle" class="small-title">Derived slab caches</text>
  <text x="1010" y="888" text-anchor="middle" class="mono">dirpage / negative</text>

  <rect x="1180" y="854" width="260" height="42" rx="11" fill="#fffbeb" stroke="#f59e0b" stroke-width="2"/>
  <text x="1310" y="871" text-anchor="middle" class="small-title">VFS / file substrate</text>
  <text x="1310" y="888" text-anchor="middle" class="mono">engine/vfs, engine/file</text>

  <path d="M 1370 238 C 1370 290, 1180 318, 1040 348" fill="none" stroke="#64748b" stroke-width="2.2" stroke-linecap="round" stroke-linejoin="round" marker-end="url(#arrow)"/>
  <path d="M 800 424 L 800 460" fill="none" stroke="#64748b" stroke-width="2.2" marker-end="url(#arrow)"/>
  <path d="M 960 424 L 960 442 L 1275 442 L 1275 460" fill="none" stroke="#64748b" stroke-width="2.2" stroke-linecap="round" stroke-linejoin="round" marker-end="url(#arrow)"/>
  <path d="M 535 550 L 590 550" fill="none" stroke="#64748b" stroke-width="2" marker-start="url(#arrow)" marker-end="url(#arrow)"/>
  <path d="M 1010 550 L 1065 550" fill="none" stroke="#64748b" stroke-width="2" marker-end="url(#arrow)"/>
  <path d="M 1275 640 L 1275 660" fill="none" stroke="#64748b" stroke-width="2" marker-end="url(#arrow)"/>
  <path d="M 800 702 L 800 798" fill="none" stroke="#64748b" stroke-width="2.2" stroke-linecap="round" stroke-linejoin="round" marker-end="url(#arrow)"/>

  <rect x="80" y="925" width="1440" height="34" rx="10" fill="#f1f5f9" stroke="#cbd5e1" stroke-width="1"/>
  <text x="100" y="947" class="tiny">Consensus note: NoKV reuses etcd/raft RawNode only inside the raftstore consensus core. Storage engine, fsmeta semantics, coordinator, rooted truth, transactions, caches, and test harnesses are in-house.</text>
</svg>
