<?xml version="1.0"?>
<!-- Generated by SVGo and Plotinum VG -->
<svg width="475.2pt" height="288pt" viewBox="0 0 475.2 288"
	xmlns="http://www.w3.org/2000/svg"
	xmlns:xlink="http://www.w3.org/1999/xlink">
<g transform="scale(1, -1) translate(0, -288)">
<path d="M0,0L475.2,0L475.2,288L0,288Z" style="fill:#FCFCFA" />
<text x="103.42" y="-275.48" transform="scale(1, -1)"
	style="font-family:Liberation Serif;font-variant:normal;font-weight:normal;font-style:normal;font-size:16px;fill:#1F2937">Deep-Descendant Direct-Children Listing</text>
<text x="252.86" y="-3.9023" transform="scale(1, -1)"
	style="font-family:Liberation Serif;font-variant:normal;font-weight:normal;font-style:normal;font-size:12px;fill:#1F2937">Workload</text>
<text x="241.11" y="-16.541" transform="scale(1, -1)"
	style="font-family:Liberation Serif;font-variant:normal;font-weight:normal;font-style:normal;font-size:10px;fill:#1F2937">deep-descendants</text>
<g transform="rotate(90)">
<text x="117.8" y="9.3867" transform="scale(1, -1)"
	style="font-family:Liberation Serif;font-variant:normal;font-weight:normal;font-style:normal;font-size:12px;fill:#1F2937">Latency (µs)</text>
</g>
<text x="25.885" y="-27.078" transform="scale(1, -1)"
	style="font-family:Liberation Serif;font-variant:normal;font-weight:normal;font-style:normal;font-size:10px;fill:#1F2937">0</text>
<text x="15.885" y="-127.05" transform="scale(1, -1)"
	style="font-family:Liberation Serif;font-variant:normal;font-weight:normal;font-style:normal;font-size:10px;fill:#1F2937">200</text>
<text x="15.885" y="-227.02" transform="scale(1, -1)"
	style="font-family:Liberation Serif;font-variant:normal;font-weight:normal;font-style:normal;font-size:10px;fill:#1F2937">400</text>
<path d="M33.385,29.363L41.385,29.363" style="fill:none;stroke:#5B6775;stroke-width:0.5" />
<path d="M33.385,129.34L41.385,129.34" style="fill:none;stroke:#5B6775;stroke-width:0.5" />
<path d="M33.385,229.31L41.385,229.31" style="fill:none;stroke:#5B6775;stroke-width:0.5" />
<path d="M37.385,79.35L41.385,79.35" style="fill:none;stroke:#5B6775;stroke-width:0.5" />
<path d="M37.385,179.32L41.385,179.32" style="fill:none;stroke:#5B6775;stroke-width:0.5" />
<path d="M41.385,29.363L41.385,267.45" style="fill:none;stroke:#5B6775;stroke-width:0.8" />
<path d="M276.37,29.363L276.37,267.45" style="fill:none;stroke:#000000;stroke-opacity:0;stroke-width:0.25" />
<path d="M77.546,29.363L475.2,29.363" style="fill:none;stroke:#E3E7EC;stroke-width:0.7" />
<path d="M77.546,129.34L475.2,129.34" style="fill:none;stroke:#E3E7EC;stroke-width:0.7" />
<path d="M77.546,229.31L475.2,229.31" style="fill:none;stroke:#E3E7EC;stroke-width:0.7" />
<path d="M261.37,29.363L261.37,30.238L271.37,30.238L271.37,29.363Z" style="fill:#2563EB" />
<path d="M261.37,29.363L261.37,30.238L271.37,30.238L271.37,29.363L261.37,29.363" style="fill:none;stroke:#FFFFFF;stroke-width:0.4" />
<path d="M271.37,29.363L271.37,42.936L281.37,42.936L281.37,29.363Z" style="fill:#D97706" />
<path d="M271.37,29.363L271.37,42.936L281.37,42.936L281.37,29.363L271.37,29.363" style="fill:none;stroke:#FFFFFF;stroke-width:0.4" />
<path d="M281.37,29.363L281.37,267.45L291.37,267.45L291.37,29.363Z" style="fill:#059669" />
<path d="M281.37,29.363L281.37,267.45L291.37,267.45L291.37,29.363L281.37,29.363" style="fill:none;stroke:#FFFFFF;stroke-width:0.4" />
<path d="M454.2,256.26L454.2,265.18L474.2,265.18L474.2,256.26Z" style="fill:#2563EB" />
<path d="M454.2,256.26L454.2,265.18L474.2,265.18L474.2,256.26L454.2,256.26" style="fill:none;stroke:#FFFFFF;stroke-width:0.4" />
<text x="407.27" y="-258.54" transform="scale(1, -1)"
	style="font-family:Liberation Serif;font-variant:normal;font-weight:normal;font-style:normal;font-size:10.5px;fill:#1F2937">read-plane</text>
<path d="M454.2,243.35L454.2,252.26L474.2,252.26L474.2,243.35Z" style="fill:#D97706" />
<path d="M454.2,243.35L454.2,252.26L474.2,252.26L474.2,243.35L454.2,243.35" style="fill:none;stroke:#FFFFFF;stroke-width:0.4" />
<text x="382.19" y="-245.63" transform="scale(1, -1)"
	style="font-family:Liberation Serif;font-variant:normal;font-weight:normal;font-style:normal;font-size:10.5px;fill:#1F2937">secondary-index</text>
<path d="M454.2,230.44L454.2,239.35L474.2,239.35L474.2,230.44Z" style="fill:#059669" />
<path d="M454.2,230.44L454.2,239.35L474.2,239.35L474.2,230.44L454.2,230.44" style="fill:none;stroke:#FFFFFF;stroke-width:0.4" />
<text x="415.43" y="-232.72" transform="scale(1, -1)"
	style="font-family:Liberation Serif;font-variant:normal;font-weight:normal;font-style:normal;font-size:10.5px;fill:#1F2937">flat-scan</text>
</g>
</svg>
