<?xml version="1.0"?>
<!-- Generated by SVGo and Plotinum VG -->
<svg width="619.2pt" height="316.8pt" viewBox="0 0 619.2 316.8"
	xmlns="http://www.w3.org/2000/svg"
	xmlns:xlink="http://www.w3.org/1999/xlink">
<g transform="scale(1, -1) translate(0, -316.8)">
<path d="M0,0L619.2,0L619.2,316.8L0,316.8Z" style="fill:#FCFCFA" />
<text x="204.07" y="-304.28" transform="scale(1, -1)"
	style="font-family:Liberation Serif;font-variant:normal;font-weight:normal;font-style:normal;font-size:16px;fill:#1F2937">Repair and Materialization Costs</text>
<text x="333.03" y="-3.9023" transform="scale(1, -1)"
	style="font-family:Liberation Serif;font-variant:normal;font-weight:normal;font-style:normal;font-size:12px;fill:#1F2937">Operation</text>
<text x="81.785" y="-16.541" transform="scale(1, -1)"
	style="font-family:Liberation Serif;font-variant:normal;font-weight:normal;font-style:normal;font-size:10px;fill:#1F2937">hot-page-fold</text>
<text x="180.43" y="-16.541" transform="scale(1, -1)"
	style="font-family:Liberation Serif;font-variant:normal;font-weight:normal;font-style:normal;font-size:10px;fill:#1F2937">hot-page-split</text>
<text x="278.53" y="-16.541" transform="scale(1, -1)"
	style="font-family:Liberation Serif;font-variant:normal;font-weight:normal;font-style:normal;font-size:10px;fill:#1F2937">cold-bootstrap</text>
<text x="394.68" y="-16.541" transform="scale(1, -1)"
	style="font-family:Liberation Serif;font-variant:normal;font-weight:normal;font-style:normal;font-size:10px;fill:#1F2937">verify</text>
<text x="483.62" y="-16.541" transform="scale(1, -1)"
	style="font-family:Liberation Serif;font-variant:normal;font-weight:normal;font-style:normal;font-size:10px;fill:#1F2937">materialize</text>
<text x="590.87" y="-16.541" transform="scale(1, -1)"
	style="font-family:Liberation Serif;font-variant:normal;font-weight:normal;font-style:normal;font-size:10px;fill:#1F2937">rebuild</text>
<g transform="rotate(90)">
<text x="132.2" y="9.3867" transform="scale(1, -1)"
	style="font-family:Liberation Serif;font-variant:normal;font-weight:normal;font-style:normal;font-size:12px;fill:#1F2937">Latency (µs)</text>
</g>
<text x="40.885" y="-27.078" transform="scale(1, -1)"
	style="font-family:Liberation Serif;font-variant:normal;font-weight:normal;font-style:normal;font-size:10px;fill:#1F2937">0.00</text>
<text x="15.885" y="-154.75" transform="scale(1, -1)"
	style="font-family:Liberation Serif;font-variant:normal;font-weight:normal;font-style:normal;font-size:10px;fill:#1F2937">250000.00</text>
<text x="15.885" y="-282.42" transform="scale(1, -1)"
	style="font-family:Liberation Serif;font-variant:normal;font-weight:normal;font-style:normal;font-size:10px;fill:#1F2937">500000.00</text>
<path d="M60.885,29.363L68.885,29.363" style="fill:none;stroke:#5B6775;stroke-width:0.5" />
<path d="M60.885,157.03L68.885,157.03" style="fill:none;stroke:#5B6775;stroke-width:0.5" />
<path d="M60.885,284.7L68.885,284.7" style="fill:none;stroke:#5B6775;stroke-width:0.5" />
<path d="M64.885,54.897L68.885,54.897" style="fill:none;stroke:#5B6775;stroke-width:0.5" />
<path d="M64.885,80.431L68.885,80.431" style="fill:none;stroke:#5B6775;stroke-width:0.5" />
<path d="M64.885,105.97L68.885,105.97" style="fill:none;stroke:#5B6775;stroke-width:0.5" />
<path d="M64.885,131.5L68.885,131.5" style="fill:none;stroke:#5B6775;stroke-width:0.5" />
<path d="M64.885,182.57L68.885,182.57" style="fill:none;stroke:#5B6775;stroke-width:0.5" />
<path d="M64.885,208.1L68.885,208.1" style="fill:none;stroke:#5B6775;stroke-width:0.5" />
<path d="M64.885,233.63L68.885,233.63" style="fill:none;stroke:#5B6775;stroke-width:0.5" />
<path d="M64.885,259.17L68.885,259.17" style="fill:none;stroke:#5B6775;stroke-width:0.5" />
<path d="M68.885,29.363L68.885,296.25" style="fill:none;stroke:#5B6775;stroke-width:0.8" />
<path d="M109,29.363L109,296.25" style="fill:none;stroke:#000000;stroke-opacity:0;stroke-width:0.25" />
<path d="M208.2,29.363L208.2,296.25" style="fill:none;stroke:#000000;stroke-opacity:0;stroke-width:0.25" />
<path d="M307.41,29.363L307.41,296.25" style="fill:none;stroke:#000000;stroke-opacity:0;stroke-width:0.25" />
<path d="M406.62,29.363L406.62,296.25" style="fill:none;stroke:#000000;stroke-opacity:0;stroke-width:0.25" />
<path d="M505.83,29.363L505.83,296.25" style="fill:none;stroke:#000000;stroke-opacity:0;stroke-width:0.25" />
<path d="M605.04,29.363L605.04,296.25" style="fill:none;stroke:#000000;stroke-opacity:0;stroke-width:0.25" />
<path d="M109,29.363L605.04,29.363" style="fill:none;stroke:#E3E7EC;stroke-width:0.7" />
<path d="M109,157.03L605.04,157.03" style="fill:none;stroke:#E3E7EC;stroke-width:0.7" />
<path d="M109,284.7L605.04,284.7" style="fill:none;stroke:#E3E7EC;stroke-width:0.7" />
<path d="M96.997,29.363L96.997,29.526L121,29.526L121,29.363Z" style="fill:#2563EB" />
<path d="M96.997,29.363L96.997,29.526L121,29.526L121,29.363L96.997,29.363" style="fill:none;stroke:#FFFFFF;stroke-width:0.4" />
<path d="M196.2,29.363L196.2,29.522L220.2,29.522L220.2,29.363Z" style="fill:#2563EB" />
<path d="M196.2,29.363L196.2,29.522L220.2,29.522L220.2,29.363L196.2,29.363" style="fill:none;stroke:#FFFFFF;stroke-width:0.4" />
<path d="M295.41,29.363L295.41,30.182L319.41,30.182L319.41,29.363Z" style="fill:#2563EB" />
<path d="M295.41,29.363L295.41,30.182L319.41,30.182L319.41,29.363L295.41,29.363" style="fill:none;stroke:#FFFFFF;stroke-width:0.4" />
<path d="M394.62,29.363L394.62,34.188L418.62,34.188L418.62,29.363Z" style="fill:#2563EB" />
<path d="M394.62,29.363L394.62,34.188L418.62,34.188L418.62,29.363L394.62,29.363" style="fill:none;stroke:#FFFFFF;stroke-width:0.4" />
<path d="M493.83,29.363L493.83,286.49L517.83,286.49L517.83,29.363Z" style="fill:#2563EB" />
<path d="M493.83,29.363L493.83,286.49L517.83,286.49L517.83,29.363L493.83,29.363" style="fill:none;stroke:#FFFFFF;stroke-width:0.4" />
<path d="M593.04,29.363L593.04,296.25L617.04,296.25L617.04,29.363Z" style="fill:#2563EB" />
<path d="M593.04,29.363L593.04,296.25L617.04,296.25L617.04,29.363L593.04,29.363" style="fill:none;stroke:#FFFFFF;stroke-width:0.4" />
</g>
</svg>
