<?xml version="1.0"?>
<!-- Generated by SVGo and Plotinum VG -->
<svg width="475.2pt" height="288pt" viewBox="0 0 475.2 288"
	xmlns="http://www.w3.org/2000/svg"
	xmlns:xlink="http://www.w3.org/1999/xlink">
<g transform="scale(1, -1) translate(0, -288)">
<path d="M0,0L475.2,0L475.2,288L0,288Z" style="fill:#FCFCFA" />
<text x="130.19" y="-275.48" transform="scale(1, -1)"
	style="font-family:Liberation Serif;font-variant:normal;font-weight:normal;font-style:normal;font-size:16px;fill:#1F2937">Steady-State Paginated Full Walk</text>
<text x="252.17" y="-3.9023" transform="scale(1, -1)"
	style="font-family:Liberation Serif;font-variant:normal;font-weight:normal;font-style:normal;font-size:12px;fill:#1F2937">Workload</text>
<text x="241.81" y="-16.541" transform="scale(1, -1)"
	style="font-family:Liberation Serif;font-variant:normal;font-weight:normal;font-style:normal;font-size:10px;fill:#1F2937">steady-paginated</text>
<g transform="rotate(90)">
<text x="117.8" y="9.3867" transform="scale(1, -1)"
	style="font-family:Liberation Serif;font-variant:normal;font-weight:normal;font-style:normal;font-size:12px;fill:#1F2937">Latency (µs)</text>
</g>
<text x="25.885" y="-27.078" transform="scale(1, -1)"
	style="font-family:Liberation Serif;font-variant:normal;font-weight:normal;font-style:normal;font-size:10px;fill:#1F2937">0</text>
<text x="15.885" y="-130.08" transform="scale(1, -1)"
	style="font-family:Liberation Serif;font-variant:normal;font-weight:normal;font-style:normal;font-size:10px;fill:#1F2937">100</text>
<text x="15.885" y="-233.08" transform="scale(1, -1)"
	style="font-family:Liberation Serif;font-variant:normal;font-weight:normal;font-style:normal;font-size:10px;fill:#1F2937">200</text>
<path d="M33.385,29.363L41.385,29.363" style="fill:none;stroke:#5B6775;stroke-width:0.5" />
<path d="M33.385,132.37L41.385,132.37" style="fill:none;stroke:#5B6775;stroke-width:0.5" />
<path d="M33.385,235.37L41.385,235.37" style="fill:none;stroke:#5B6775;stroke-width:0.5" />
<path d="M37.385,49.964L41.385,49.964" style="fill:none;stroke:#5B6775;stroke-width:0.5" />
<path d="M37.385,70.564L41.385,70.564" style="fill:none;stroke:#5B6775;stroke-width:0.5" />
<path d="M37.385,91.164L41.385,91.164" style="fill:none;stroke:#5B6775;stroke-width:0.5" />
<path d="M37.385,111.76L41.385,111.76" style="fill:none;stroke:#5B6775;stroke-width:0.5" />
<path d="M37.385,152.97L41.385,152.97" style="fill:none;stroke:#5B6775;stroke-width:0.5" />
<path d="M37.385,173.57L41.385,173.57" style="fill:none;stroke:#5B6775;stroke-width:0.5" />
<path d="M37.385,194.17L41.385,194.17" style="fill:none;stroke:#5B6775;stroke-width:0.5" />
<path d="M37.385,214.77L41.385,214.77" style="fill:none;stroke:#5B6775;stroke-width:0.5" />
<path d="M37.385,255.97L41.385,255.97" style="fill:none;stroke:#5B6775;stroke-width:0.5" />
<path d="M41.385,29.363L41.385,267.45" style="fill:none;stroke:#5B6775;stroke-width:0.8" />
<path d="M275.68,29.363L275.68,267.45" style="fill:none;stroke:#000000;stroke-opacity:0;stroke-width:0.25" />
<path d="M76.159,29.363L475.2,29.363" style="fill:none;stroke:#E3E7EC;stroke-width:0.7" />
<path d="M76.159,132.37L475.2,132.37" style="fill:none;stroke:#E3E7EC;stroke-width:0.7" />
<path d="M76.159,235.37L475.2,235.37" style="fill:none;stroke:#E3E7EC;stroke-width:0.7" />
<path d="M260.68,29.363L260.68,267.45L270.68,267.45L270.68,29.363Z" style="fill:#2563EB" />
<path d="M260.68,29.363L260.68,267.45L270.68,267.45L270.68,29.363L260.68,29.363" style="fill:none;stroke:#FFFFFF;stroke-width:0.4" />
<path d="M270.68,29.363L270.68,66.321L280.68,66.321L280.68,29.363Z" style="fill:#D97706" />
<path d="M270.68,29.363L270.68,66.321L280.68,66.321L280.68,29.363L270.68,29.363" style="fill:none;stroke:#FFFFFF;stroke-width:0.4" />
<path d="M280.68,29.363L280.68,65.84L290.68,65.84L290.68,29.363Z" style="fill:#059669" />
<path d="M280.68,29.363L280.68,65.84L290.68,65.84L290.68,29.363L280.68,29.363" style="fill:none;stroke:#FFFFFF;stroke-width:0.4" />
<path d="M454.2,256.26L454.2,265.18L474.2,265.18L474.2,256.26Z" style="fill:#2563EB" />
<path d="M454.2,256.26L454.2,265.18L474.2,265.18L474.2,256.26L454.2,256.26" style="fill:none;stroke:#FFFFFF;stroke-width:0.4" />
<text x="382.19" y="-258.54" transform="scale(1, -1)"
	style="font-family:Liberation Serif;font-variant:normal;font-weight:normal;font-style:normal;font-size:10.5px;fill:#1F2937">secondary-index</text>
<path d="M454.2,243.35L454.2,252.26L474.2,252.26L474.2,243.35Z" style="fill:#D97706" />
<path d="M454.2,243.35L454.2,252.26L474.2,252.26L474.2,243.35L454.2,243.35" style="fill:none;stroke:#FFFFFF;stroke-width:0.4" />
<text x="365.88" y="-245.63" transform="scale(1, -1)"
	style="font-family:Liberation Serif;font-variant:normal;font-weight:normal;font-style:normal;font-size:10.5px;fill:#1F2937">repairing-read-plane</text>
<path d="M454.2,230.44L454.2,239.35L474.2,239.35L474.2,230.44Z" style="fill:#059669" />
<path d="M454.2,230.44L454.2,239.35L474.2,239.35L474.2,230.44L454.2,230.44" style="fill:none;stroke:#FFFFFF;stroke-width:0.4" />
<text x="382.78" y="-232.72" transform="scale(1, -1)"
	style="font-family:Liberation Serif;font-variant:normal;font-weight:normal;font-style:normal;font-size:10.5px;fill:#1F2937">strict-read-plane</text>
</g>
</svg>
